<svg width="20" height="20" viewBox="0 0 20 20" fill="none" xmlns="http://www.w3.org/2000/svg">
<path d="M12.0469 3.00379C12.0628 2.94427 12.0902 2.88845 12.1277 2.83954C12.1651 2.79063 12.2118 2.74959 12.2652 2.71875C12.3185 2.68791 12.3774 2.66789 12.4385 2.65983C12.4995 2.65176 12.5616 2.65582 12.6211 2.67176C13.7533 2.96709 14.7863 3.55891 15.6136 4.38627C16.441 5.21363 17.0328 6.24661 17.3281 7.37879C17.3441 7.4383 17.3481 7.50036 17.3401 7.56143C17.332 7.62251 17.312 7.68139 17.2811 7.73472C17.2503 7.78805 17.2093 7.83478 17.1603 7.87224C17.1114 7.90969 17.0556 7.93714 16.9961 7.95301C16.9566 7.96353 16.9159 7.96878 16.875 7.96863C16.7717 7.9687 16.6713 7.93465 16.5894 7.87178C16.5074 7.80892 16.4486 7.72075 16.4219 7.62098C16.1683 6.64847 15.66 5.76116 14.9494 5.05051C14.2387 4.33985 13.3514 3.83156 12.3789 3.57801C12.3194 3.56214 12.2636 3.53469 12.2147 3.49724C12.1658 3.45978 12.1247 3.41305 12.0939 3.35972C12.063 3.30639 12.043 3.24751 12.035 3.18643C12.0269 3.12536 12.0309 3.0633 12.0469 3.00379ZM11.7539 6.07801C12.8906 6.38113 13.6188 7.10926 13.9219 8.24598C13.9486 8.34575 14.0074 8.43392 14.0894 8.49678C14.1713 8.55965 14.2717 8.5937 14.375 8.59363C14.4159 8.59378 14.4566 8.58853 14.4961 8.57801C14.5556 8.56214 14.6114 8.53469 14.6603 8.49724C14.7093 8.45978 14.7503 8.41305 14.7811 8.35972C14.812 8.30639 14.832 8.24751 14.8401 8.18643C14.8481 8.12536 14.8441 8.0633 14.8281 8.00379C14.4375 6.54207 13.4578 5.56238 11.9961 5.17176C11.9366 5.15586 11.8745 5.15183 11.8135 5.15991C11.7524 5.16799 11.6935 5.18802 11.6402 5.21885C11.5325 5.28112 11.454 5.38361 11.4219 5.50379C11.3898 5.62397 11.4067 5.75198 11.469 5.85967C11.5312 5.96735 11.6337 6.04589 11.7539 6.07801ZM17.9602 13.6561C17.8263 14.6774 17.3251 15.615 16.5503 16.2936C15.7755 16.9723 14.78 17.3455 13.75 17.3436C7.63282 17.3436 2.65626 12.3671 2.65626 6.24988C2.65428 5.22023 3.02721 4.22507 3.70538 3.45029C4.38354 2.67551 5.32056 2.1741 6.34141 2.03973C6.57641 2.01117 6.81433 2.05963 7.01944 2.17782C7.22455 2.29601 7.38578 2.47756 7.47891 2.6952L9.12735 6.37488C9.20014 6.54147 9.23025 6.72357 9.21497 6.90471C9.1997 7.08586 9.13951 7.26034 9.03985 7.41238C9.0298 7.42786 9.01884 7.44273 9.00704 7.45691L7.36095 9.41473C7.35095 9.43502 7.34575 9.45734 7.34575 9.47996C7.34575 9.50258 7.35095 9.5249 7.36095 9.5452C7.95938 10.7702 9.24376 12.0452 10.4859 12.6429C10.5067 12.6523 10.5293 12.6568 10.5521 12.656C10.5749 12.6552 10.5972 12.6491 10.6172 12.6382L12.5461 10.9975C12.5599 10.9856 12.5745 10.9746 12.5899 10.9647C12.7412 10.8638 12.9154 10.8022 13.0965 10.7856C13.2777 10.769 13.4601 10.7978 13.6274 10.8694L17.318 12.5233C17.5327 12.6185 17.7111 12.7803 17.8268 12.9847C17.9424 13.1892 17.9892 13.4254 17.9602 13.6585V13.6561ZM17.0313 13.5405C17.0339 13.5078 17.0262 13.4752 17.0092 13.4471C16.9922 13.4191 16.9669 13.3971 16.9367 13.3843L13.2453 11.7304C13.2252 11.7226 13.2035 11.7192 13.182 11.7206C13.1604 11.7219 13.1394 11.7279 13.1203 11.7382L11.1922 13.3788C11.1781 13.3905 11.1633 13.4014 11.1484 13.4116C10.9912 13.5165 10.8094 13.5788 10.6209 13.5925C10.4323 13.6062 10.2434 13.5708 10.0727 13.4897C8.63829 12.7968 7.2086 11.3804 6.51563 9.95926C6.43413 9.78947 6.39785 9.60152 6.4103 9.41359C6.42276 9.22567 6.48353 9.04415 6.58673 8.8866C6.59679 8.87093 6.60802 8.85605 6.62032 8.84207L8.26563 6.88426C8.27503 6.8638 8.2799 6.84154 8.2799 6.81902C8.2799 6.79651 8.27503 6.77425 8.26563 6.75379L6.62032 3.07098C6.60946 3.04142 6.58993 3.01583 6.56428 2.99757C6.53862 2.97931 6.50805 2.96922 6.47657 2.96863H6.4586C5.66403 3.07433 4.93508 3.46562 4.40789 4.06944C3.88071 4.67325 3.59131 5.44831 3.59376 6.24988C3.59376 11.8499 8.15001 16.4061 13.75 16.4061C14.5517 16.4086 15.3269 16.1191 15.9307 15.5917C16.5345 15.0644 16.9257 14.3352 17.0313 13.5405Z" fill="white"/>
</svg>
