<svg width="20" height="20" viewBox="0 0 20 20" fill="none" xmlns="http://www.w3.org/2000/svg">
<mask id="path-1-inside-1_28994_261" fill="white">
<path d="M17.0961 8.10705L10.8461 2.21017C10.843 2.2075 10.8402 2.20463 10.8375 2.20158C10.6074 1.99231 10.3075 1.87634 9.99648 1.87634C9.68545 1.87634 9.38558 1.99231 9.15547 2.20158L9.14688 2.21017L2.90391 8.10705C2.77656 8.22414 2.67491 8.3664 2.60538 8.52482C2.53586 8.68323 2.49997 8.85436 2.5 9.02736V16.25C2.5 16.5815 2.6317 16.8995 2.86612 17.1339C3.10054 17.3683 3.41848 17.5 3.75 17.5H7.5C7.83152 17.5 8.14946 17.3683 8.38388 17.1339C8.6183 16.8995 8.75 16.5815 8.75 16.25V12.5H11.25V16.25C11.25 16.5815 11.3817 16.8995 11.6161 17.1339C11.8505 17.3683 12.1685 17.5 12.5 17.5H16.25C16.5815 17.5 16.8995 17.3683 17.1339 17.1339C17.3683 16.8995 17.5 16.5815 17.5 16.25V9.02736C17.5 8.85436 17.4641 8.68323 17.3946 8.52482C17.3251 8.3664 17.2234 8.22414 17.0961 8.10705ZM16.25 16.25H12.5V12.5C12.5 12.1685 12.3683 11.8506 12.1339 11.6161C11.8995 11.3817 11.5815 11.25 11.25 11.25H8.75C8.41848 11.25 8.10054 11.3817 7.86612 11.6161C7.6317 11.8506 7.5 12.1685 7.5 12.5V16.25H3.75V9.02736L3.75859 9.01955L10 3.12501L16.2422 9.01798L16.2508 9.0258L16.25 16.25Z"/>
</mask>
<path d="M17.0961 8.10705L10.8461 2.21017C10.843 2.2075 10.8402 2.20463 10.8375 2.20158C10.6074 1.99231 10.3075 1.87634 9.99648 1.87634C9.68545 1.87634 9.38558 1.99231 9.15547 2.20158L9.14688 2.21017L2.90391 8.10705C2.77656 8.22414 2.67491 8.3664 2.60538 8.52482C2.53586 8.68323 2.49997 8.85436 2.5 9.02736V16.25C2.5 16.5815 2.6317 16.8995 2.86612 17.1339C3.10054 17.3683 3.41848 17.5 3.75 17.5H7.5C7.83152 17.5 8.14946 17.3683 8.38388 17.1339C8.6183 16.8995 8.75 16.5815 8.75 16.25V12.5H11.25V16.25C11.25 16.5815 11.3817 16.8995 11.6161 17.1339C11.8505 17.3683 12.1685 17.5 12.5 17.5H16.25C16.5815 17.5 16.8995 17.3683 17.1339 17.1339C17.3683 16.8995 17.5 16.5815 17.5 16.25V9.02736C17.5 8.85436 17.4641 8.68323 17.3946 8.52482C17.3251 8.3664 17.2234 8.22414 17.0961 8.10705ZM16.25 16.25H12.5V12.5C12.5 12.1685 12.3683 11.8506 12.1339 11.6161C11.8995 11.3817 11.5815 11.25 11.25 11.25H8.75C8.41848 11.25 8.10054 11.3817 7.86612 11.6161C7.6317 11.8506 7.5 12.1685 7.5 12.5V16.25H3.75V9.02736L3.75859 9.01955L10 3.12501L16.2422 9.01798L16.2508 9.0258L16.25 16.25Z" fill="#272727"/>
<path d="M17.0961 8.10705L16.0667 9.19808L16.0737 9.20468L16.0808 9.21119L17.0961 8.10705ZM10.8461 2.21017L11.8755 1.11914L11.8541 1.09895L11.8319 1.07961L10.8461 2.21017ZM10.8375 2.20158L11.9681 1.21576L11.911 1.15029L11.8467 1.09186L10.8375 2.20158ZM9.99648 1.87634L9.99648 0.376343L9.99648 1.87634ZM9.15547 2.20158L8.14625 1.09186L8.11995 1.11578L8.09481 1.14092L9.15547 2.20158ZM9.14688 2.21017L10.1769 3.30063L10.1924 3.28595L10.2075 3.27083L9.14688 2.21017ZM2.90391 8.10705L3.91922 9.21119L3.92661 9.2044L3.93391 9.1975L2.90391 8.10705ZM2.5 9.02736L4 9.02736L4 9.02713L2.5 9.02736ZM2.5 16.25H1H2.5ZM8.75 12.5V11H7.25V12.5H8.75ZM11.25 12.5H12.75V11H11.25V12.5ZM17.5 9.02736L16 9.02713V9.02736H17.5ZM16.25 16.25V17.75H17.7498L17.75 16.2502L16.25 16.25ZM12.5 16.25H11V17.75H12.5V16.25ZM7.5 16.25V17.75H9V16.25H7.5ZM3.75 16.25H2.25V17.75H3.75V16.25ZM3.75 9.02736L2.74096 7.91748L2.25 8.36383V9.02736H3.75ZM3.75859 9.01955L4.76763 10.1294L4.77817 10.1199L4.78852 10.1101L3.75859 9.01955ZM10 3.12501L11.0297 2.03428L9.9998 1.06199L8.97008 2.03448L10 3.12501ZM16.2422 9.01798L15.2125 10.1087L15.2227 10.1184L15.2332 10.1279L16.2422 9.01798ZM16.2508 9.0258L17.7508 9.02596L17.7509 8.3623L17.2598 7.91587L16.2508 9.0258ZM17.0961 8.10705L18.1255 7.01601L11.8755 1.11914L10.8461 2.21017L9.8167 3.3012L16.0667 9.19808L17.0961 8.10705ZM10.8461 2.21017L11.8319 1.07961C11.8803 1.12184 11.9258 1.16733 11.9681 1.21576L10.8375 2.20158L9.70694 3.1874C9.7545 3.24194 9.80573 3.29317 9.86027 3.34073L10.8461 2.21017ZM10.8375 2.20158L11.8467 1.09186C11.3405 0.631461 10.6808 0.376343 9.99648 0.376343L9.99648 1.87634L9.99648 3.37634C9.93428 3.37634 9.8743 3.35315 9.82828 3.3113L10.8375 2.20158ZM9.99648 1.87634L9.99648 0.376343C9.3122 0.376343 8.65249 0.631461 8.14625 1.09186L9.15547 2.20158L10.1647 3.3113C10.1187 3.35315 10.0587 3.37634 9.99648 3.37634L9.99648 1.87634ZM9.15547 2.20158L8.09481 1.14092L8.08621 1.14951L9.14688 2.21017L10.2075 3.27083L10.2161 3.26224L9.15547 2.20158ZM9.14688 2.21017L8.11687 1.11971L1.8739 7.01659L2.90391 8.10705L3.93391 9.1975L10.1769 3.30063L9.14688 2.21017ZM2.90391 8.10705L1.88859 7.0029C1.60843 7.26052 1.3848 7.57349 1.23184 7.922L2.60538 8.52482L3.97892 9.12764C3.96502 9.15932 3.94469 9.18777 3.91922 9.21119L2.90391 8.10705ZM2.60538 8.52482L1.23184 7.922C1.07889 8.27051 0.999942 8.64698 1 9.02759L2.5 9.02736L4 9.02713C4.00001 9.06173 3.99283 9.09595 3.97892 9.12764L2.60538 8.52482ZM2.5 9.02736H1V16.25H2.5H4V9.02736H2.5ZM2.5 16.25H1C1 16.9794 1.28973 17.6788 1.80546 18.1946L2.86612 17.1339L3.92678 16.0732C3.97366 16.1201 4 16.1837 4 16.25H2.5ZM2.86612 17.1339L1.80546 18.1946C2.32118 18.7103 3.02065 19 3.75 19V17.5V16C3.8163 16 3.87989 16.0264 3.92678 16.0732L2.86612 17.1339ZM3.75 17.5V19H7.5V17.5V16H3.75V17.5ZM7.5 17.5V19C8.22935 19 8.92882 18.7103 9.44454 18.1946L8.38388 17.1339L7.32322 16.0732C7.37011 16.0264 7.43369 16 7.5 16V17.5ZM8.38388 17.1339L9.44454 18.1946C9.96027 17.6788 10.25 16.9794 10.25 16.25H8.75H7.25C7.25 16.1837 7.27634 16.1201 7.32322 16.0732L8.38388 17.1339ZM8.75 16.25H10.25V12.5H8.75H7.25V16.25H8.75ZM8.75 12.5V14H11.25V12.5V11H8.75V12.5ZM11.25 12.5H9.75V16.25H11.25H12.75V12.5H11.25ZM11.25 16.25H9.75C9.75 16.9794 10.0397 17.6788 10.5555 18.1946L11.6161 17.1339L12.6768 16.0732C12.7237 16.1201 12.75 16.1837 12.75 16.25H11.25ZM11.6161 17.1339L10.5555 18.1946C11.0712 18.7103 11.7707 19 12.5 19V17.5V16C12.5663 16 12.6299 16.0264 12.6768 16.0732L11.6161 17.1339ZM12.5 17.5V19H16.25V17.5V16H12.5V17.5ZM16.25 17.5V19C16.9793 19 17.6788 18.7103 18.1945 18.1946L17.1339 17.1339L16.0732 16.0732C16.1201 16.0264 16.1837 16 16.25 16V17.5ZM17.1339 17.1339L18.1945 18.1946C18.7103 17.6788 19 16.9794 19 16.25H17.5H16C16 16.1837 16.0263 16.1201 16.0732 16.0732L17.1339 17.1339ZM17.5 16.25H19V9.02736H17.5H16V16.25H17.5ZM17.5 9.02736L19 9.02759C19.0001 8.64699 18.9211 8.27052 18.7682 7.922L17.3946 8.52482L16.0211 9.12764C16.0072 9.09595 16 9.06173 16 9.02713L17.5 9.02736ZM17.3946 8.52482L18.7682 7.922C18.6152 7.57349 18.3916 7.26052 18.1114 7.0029L17.0961 8.10705L16.0808 9.21119C16.0553 9.18777 16.035 9.15932 16.0211 9.12764L17.3946 8.52482ZM16.25 16.25V14.75H12.5V16.25V17.75H16.25V16.25ZM12.5 16.25H14V12.5H12.5H11V16.25H12.5ZM12.5 12.5H14C14 11.7707 13.7103 11.0712 13.1945 10.5555L12.1339 11.6161L11.0732 12.6768C11.0263 12.6299 11 12.5663 11 12.5H12.5ZM12.1339 11.6161L13.1945 10.5555C12.6788 10.0397 11.9793 9.75001 11.25 9.75001V11.25V12.75C11.1837 12.75 11.1201 12.7237 11.0732 12.6768L12.1339 11.6161ZM11.25 11.25V9.75001H8.75V11.25V12.75H11.25V11.25ZM8.75 11.25V9.75001C8.02065 9.75001 7.32118 10.0397 6.80546 10.5555L7.86612 11.6161L8.92678 12.6768C8.87989 12.7237 8.81631 12.75 8.75 12.75V11.25ZM7.86612 11.6161L6.80546 10.5555C6.28973 11.0712 6 11.7707 6 12.5H7.5H9C9 12.5663 8.97366 12.6299 8.92678 12.6768L7.86612 11.6161ZM7.5 12.5H6V16.25H7.5H9V12.5H7.5ZM7.5 16.25V14.75H3.75V16.25V17.75H7.5V16.25ZM3.75 16.25H5.25V9.02736H3.75H2.25V16.25H3.75ZM3.75 9.02736L4.75904 10.1372L4.76763 10.1294L3.75859 9.01955L2.74955 7.90966L2.74096 7.91748L3.75 9.02736ZM3.75859 9.01955L4.78852 10.1101L11.0299 4.21555L10 3.12501L8.97008 2.03448L2.72867 7.92901L3.75859 9.01955ZM10 3.12501L8.97029 4.21575L15.2125 10.1087L16.2422 9.01798L17.2719 7.92725L11.0297 2.03428L10 3.12501ZM16.2422 9.01798L15.2332 10.1279L15.2418 10.1357L16.2508 9.0258L17.2598 7.91587L17.2512 7.90806L16.2422 9.01798ZM16.2508 9.0258L14.7508 9.02563L14.75 16.2499L16.25 16.25L17.75 16.2502L17.7508 9.02596L16.2508 9.0258Z" fill="#272727" mask="url(#path-1-inside-1_28994_261)"/>
</svg>
