<svg width="20" height="20" viewBox="0 0 20 20" fill="none" xmlns="http://www.w3.org/2000/svg">
<mask id="path-1-inside-1_28994_264" fill="white">
<path d="M16.25 5.625H1.875V3.75C1.875 3.58424 1.80915 3.42527 1.69194 3.30806C1.57473 3.19085 1.41576 3.125 1.25 3.125C1.08424 3.125 0.925268 3.19085 0.808058 3.30806C0.690848 3.42527 0.625 3.58424 0.625 3.75V16.25C0.625 16.4158 0.690848 16.5747 0.808058 16.6919C0.925268 16.8092 1.08424 16.875 1.25 16.875C1.41576 16.875 1.57473 16.8092 1.69194 16.6919C1.80915 16.5747 1.875 16.4158 1.875 16.25V13.75H18.125V16.25C18.125 16.4158 18.1908 16.5747 18.3081 16.6919C18.4253 16.8092 18.5842 16.875 18.75 16.875C18.9158 16.875 19.0747 16.8092 19.1919 16.6919C19.3092 16.5747 19.375 16.4158 19.375 16.25V8.75C19.375 7.9212 19.0458 7.12634 18.4597 6.54029C17.8737 5.95424 17.0788 5.625 16.25 5.625ZM1.875 6.875H7.5V12.5H1.875V6.875ZM8.75 12.5V6.875H16.25C16.7473 6.875 17.2242 7.07254 17.5758 7.42417C17.9275 7.77581 18.125 8.25272 18.125 8.75V12.5H8.75Z"/>
</mask>
<path d="M16.25 5.625H1.875V3.75C1.875 3.58424 1.80915 3.42527 1.69194 3.30806C1.57473 3.19085 1.41576 3.125 1.25 3.125C1.08424 3.125 0.925268 3.19085 0.808058 3.30806C0.690848 3.42527 0.625 3.58424 0.625 3.75V16.25C0.625 16.4158 0.690848 16.5747 0.808058 16.6919C0.925268 16.8092 1.08424 16.875 1.25 16.875C1.41576 16.875 1.57473 16.8092 1.69194 16.6919C1.80915 16.5747 1.875 16.4158 1.875 16.25V13.75H18.125V16.25C18.125 16.4158 18.1908 16.5747 18.3081 16.6919C18.4253 16.8092 18.5842 16.875 18.75 16.875C18.9158 16.875 19.0747 16.8092 19.1919 16.6919C19.3092 16.5747 19.375 16.4158 19.375 16.25V8.75C19.375 7.9212 19.0458 7.12634 18.4597 6.54029C17.8737 5.95424 17.0788 5.625 16.25 5.625ZM1.875 6.875H7.5V12.5H1.875V6.875ZM8.75 12.5V6.875H16.25C16.7473 6.875 17.2242 7.07254 17.5758 7.42417C17.9275 7.77581 18.125 8.25272 18.125 8.75V12.5H8.75Z" fill="#272727"/>
<path d="M1.875 5.625H0.375V7.125H1.875V5.625ZM1.875 3.75L3.375 3.75L1.875 3.75ZM0.625 3.75H-0.875H0.625ZM0.625 16.25H-0.875H0.625ZM1.875 16.25H3.375H1.875ZM1.875 13.75V12.25H0.375V13.75H1.875ZM18.125 13.75H19.625V12.25H18.125V13.75ZM1.875 6.875V5.375H0.375V6.875H1.875ZM7.5 6.875H9V5.375H7.5V6.875ZM7.5 12.5V14H9V12.5H7.5ZM1.875 12.5H0.375V14H1.875V12.5ZM8.75 12.5H7.25V14H8.75V12.5ZM8.75 6.875V5.375H7.25V6.875H8.75ZM16.25 6.875L16.25 8.375L16.25 6.875ZM18.125 8.75L19.625 8.75L18.125 8.75ZM18.125 12.5V14H19.625V12.5H18.125ZM16.25 5.625V4.125H1.875V5.625V7.125H16.25V5.625ZM1.875 5.625H3.375V3.75H1.875H0.375V5.625H1.875ZM1.875 3.75L3.375 3.75C3.375 3.18641 3.15112 2.64591 2.7526 2.2474L1.69194 3.30806L0.631282 4.36872C0.467187 4.20462 0.375 3.98206 0.375 3.75L1.875 3.75ZM1.69194 3.30806L2.7526 2.2474C2.35409 1.84888 1.81359 1.625 1.25 1.625V3.125V4.625C1.01793 4.625 0.795375 4.53281 0.631282 4.36872L1.69194 3.30806ZM1.25 3.125V1.625C0.686414 1.625 0.145912 1.84888 -0.252602 2.2474L0.808058 3.30806L1.86872 4.36872C1.70462 4.53281 1.48207 4.625 1.25 4.625V3.125ZM0.808058 3.30806L-0.252602 2.2474C-0.651117 2.64591 -0.875 3.18641 -0.875 3.75L0.625 3.75L2.125 3.75C2.125 3.98206 2.03281 4.20462 1.86872 4.36872L0.808058 3.30806ZM0.625 3.75H-0.875V16.25H0.625H2.125V3.75H0.625ZM0.625 16.25H-0.875C-0.875 16.8136 -0.651118 17.3541 -0.252602 17.7526L0.808058 16.6919L1.86872 15.6313C2.03281 15.7954 2.125 16.0179 2.125 16.25H0.625ZM0.808058 16.6919L-0.252602 17.7526C0.145915 18.1511 0.686418 18.375 1.25 18.375V16.875V15.375C1.48206 15.375 1.70462 15.4672 1.86872 15.6313L0.808058 16.6919ZM1.25 16.875V18.375C1.81358 18.375 2.35409 18.1511 2.7526 17.7526L1.69194 16.6919L0.631282 15.6313C0.795378 15.4672 1.01794 15.375 1.25 15.375V16.875ZM1.69194 16.6919L2.7526 17.7526C3.15112 17.3541 3.375 16.8136 3.375 16.25H1.875H0.375C0.375 16.0179 0.467186 15.7954 0.631282 15.6313L1.69194 16.6919ZM1.875 16.25H3.375V13.75H1.875H0.375V16.25H1.875ZM1.875 13.75V15.25H18.125V13.75V12.25H1.875V13.75ZM18.125 13.75H16.625V16.25H18.125H19.625V13.75H18.125ZM18.125 16.25H16.625C16.625 16.8136 16.8489 17.3541 17.2474 17.7526L18.3081 16.6919L19.3687 15.6313C19.5328 15.7954 19.625 16.0179 19.625 16.25H18.125ZM18.3081 16.6919L17.2474 17.7526C17.6459 18.1511 18.1864 18.375 18.75 18.375V16.875V15.375C18.9821 15.375 19.2046 15.4672 19.3687 15.6313L18.3081 16.6919ZM18.75 16.875V18.375C19.3136 18.375 19.8541 18.1511 20.2526 17.7526L19.1919 16.6919L18.1313 15.6313C18.2954 15.4672 18.5179 15.375 18.75 15.375V16.875ZM19.1919 16.6919L20.2526 17.7526C20.6511 17.3541 20.875 16.8136 20.875 16.25H19.375H17.875C17.875 16.0179 17.9672 15.7954 18.1313 15.6313L19.1919 16.6919ZM19.375 16.25H20.875V8.75H19.375H17.875V16.25H19.375ZM19.375 8.75H20.875C20.875 7.52337 20.3877 6.34699 19.5204 5.47963L18.4597 6.54029L17.399 7.60095C17.7038 7.9057 17.875 8.31902 17.875 8.75H19.375ZM18.4597 6.54029L19.5204 5.47963C18.653 4.61228 17.4766 4.125 16.25 4.125V5.625V7.125C16.681 7.125 17.0943 7.2962 17.399 7.60095L18.4597 6.54029ZM1.875 6.875V8.375H7.5V6.875V5.375H1.875V6.875ZM7.5 6.875H6V12.5H7.5H9V6.875H7.5ZM7.5 12.5V11H1.875V12.5V14H7.5V12.5ZM1.875 12.5H3.375V6.875H1.875H0.375V12.5H1.875ZM8.75 12.5H10.25V6.875H8.75H7.25V12.5H8.75ZM8.75 6.875V8.375H16.25V6.875V5.375H8.75V6.875ZM16.25 6.875L16.25 8.375C16.3495 8.375 16.4448 8.41451 16.5152 8.48483L17.5758 7.42417L18.6365 6.36351C18.0035 5.73058 17.1451 5.375 16.25 5.375L16.25 6.875ZM17.5758 7.42417L16.5152 8.48483C16.5855 8.55516 16.625 8.65054 16.625 8.75L18.125 8.75L19.625 8.75C19.625 7.8549 19.2694 6.99645 18.6365 6.36351L17.5758 7.42417ZM18.125 8.75H16.625V12.5H18.125H19.625V8.75H18.125ZM18.125 12.5V11H8.75V12.5V14H18.125V12.5Z" fill="#272727" mask="url(#path-1-inside-1_28994_264)"/>
</svg>
