<svg width="20" height="20" viewBox="0 0 20 20" fill="none" xmlns="http://www.w3.org/2000/svg">
<mask id="path-1-inside-1_28994_267" fill="white">
<path d="M18.0407 16.5626C16.8508 14.5055 15.0172 13.0305 12.8774 12.3313C13.9358 11.7012 14.7582 10.741 15.2182 9.59833C15.6781 8.45561 15.7503 7.19349 15.4235 6.0058C15.0968 4.81811 14.3892 3.77051 13.4094 3.0239C12.4296 2.27728 11.2318 1.87292 10 1.87292C8.76821 1.87292 7.57044 2.27728 6.59067 3.0239C5.6109 3.77051 4.90331 4.81811 4.57654 6.0058C4.24978 7.19349 4.32193 8.45561 4.78189 9.59833C5.24186 10.741 6.06422 11.7012 7.12268 12.3313C4.98284 13.0297 3.14925 14.5047 1.9594 16.5626C1.91577 16.6337 1.88683 16.7129 1.87429 16.7954C1.86174 16.8779 1.86585 16.9621 1.88638 17.043C1.9069 17.1239 1.94341 17.1998 1.99377 17.2664C2.04413 17.333 2.10731 17.3888 2.17958 17.4305C2.25185 17.4722 2.33175 17.4991 2.41457 17.5095C2.49738 17.5198 2.58143 17.5135 2.66176 17.4909C2.74209 17.4682 2.81708 17.4297 2.88228 17.3776C2.94749 17.3255 3.00161 17.2609 3.04143 17.1876C4.51331 14.6438 7.11487 13.1251 10 13.1251C12.8852 13.1251 15.4867 14.6438 16.9586 17.1876C16.9984 17.2609 17.0526 17.3255 17.1178 17.3776C17.183 17.4297 17.258 17.4682 17.3383 17.4909C17.4186 17.5135 17.5027 17.5198 17.5855 17.5095C17.6683 17.4991 17.7482 17.4722 17.8205 17.4305C17.8927 17.3888 17.9559 17.333 18.0063 17.2664C18.0566 17.1998 18.0932 17.1239 18.1137 17.043C18.1342 16.9621 18.1383 16.8779 18.1258 16.7954C18.1132 16.7129 18.0843 16.6337 18.0407 16.5626ZM5.62503 7.50005C5.62503 6.63476 5.88162 5.7889 6.36235 5.06943C6.84308 4.34997 7.52636 3.78921 8.32579 3.45808C9.12521 3.12694 10.0049 3.0403 10.8535 3.20911C11.7022 3.37792 12.4818 3.7946 13.0936 4.40646C13.7055 5.01831 14.1222 5.79786 14.291 6.64653C14.4598 7.4952 14.3731 8.37486 14.042 9.17429C13.7109 9.97372 13.1501 10.657 12.4306 11.1377C11.7112 11.6185 10.8653 11.8751 10 11.8751C8.84009 11.8738 7.72801 11.4125 6.90781 10.5923C6.0876 9.77207 5.62627 8.65999 5.62503 7.50005Z"/>
</mask>
<path d="M18.0407 16.5626C16.8508 14.5055 15.0172 13.0305 12.8774 12.3313C13.9358 11.7012 14.7582 10.741 15.2182 9.59833C15.6781 8.45561 15.7503 7.19349 15.4235 6.0058C15.0968 4.81811 14.3892 3.77051 13.4094 3.0239C12.4296 2.27728 11.2318 1.87292 10 1.87292C8.76821 1.87292 7.57044 2.27728 6.59067 3.0239C5.6109 3.77051 4.90331 4.81811 4.57654 6.0058C4.24978 7.19349 4.32193 8.45561 4.78189 9.59833C5.24186 10.741 6.06422 11.7012 7.12268 12.3313C4.98284 13.0297 3.14925 14.5047 1.9594 16.5626C1.91577 16.6337 1.88683 16.7129 1.87429 16.7954C1.86174 16.8779 1.86585 16.9621 1.88638 17.043C1.9069 17.1239 1.94341 17.1998 1.99377 17.2664C2.04413 17.333 2.10731 17.3888 2.17958 17.4305C2.25185 17.4722 2.33175 17.4991 2.41457 17.5095C2.49738 17.5198 2.58143 17.5135 2.66176 17.4909C2.74209 17.4682 2.81708 17.4297 2.88228 17.3776C2.94749 17.3255 3.00161 17.2609 3.04143 17.1876C4.51331 14.6438 7.11487 13.1251 10 13.1251C12.8852 13.1251 15.4867 14.6438 16.9586 17.1876C16.9984 17.2609 17.0526 17.3255 17.1178 17.3776C17.183 17.4297 17.258 17.4682 17.3383 17.4909C17.4186 17.5135 17.5027 17.5198 17.5855 17.5095C17.6683 17.4991 17.7482 17.4722 17.8205 17.4305C17.8927 17.3888 17.9559 17.333 18.0063 17.2664C18.0566 17.1998 18.0932 17.1239 18.1137 17.043C18.1342 16.9621 18.1383 16.8779 18.1258 16.7954C18.1132 16.7129 18.0843 16.6337 18.0407 16.5626ZM5.62503 7.50005C5.62503 6.63476 5.88162 5.7889 6.36235 5.06943C6.84308 4.34997 7.52636 3.78921 8.32579 3.45808C9.12521 3.12694 10.0049 3.0403 10.8535 3.20911C11.7022 3.37792 12.4818 3.7946 13.0936 4.40646C13.7055 5.01831 14.1222 5.79786 14.291 6.64653C14.4598 7.4952 14.3731 8.37486 14.042 9.17429C13.7109 9.97372 13.1501 10.657 12.4306 11.1377C11.7112 11.6185 10.8653 11.8751 10 11.8751C8.84009 11.8738 7.72801 11.4125 6.90781 10.5923C6.0876 9.77207 5.62627 8.65999 5.62503 7.50005Z" fill="#272727"/>
<path d="M18.0407 16.5626L16.7422 17.3136L16.7519 17.3303L16.762 17.3468L18.0407 16.5626ZM12.8774 12.3313L12.1101 11.0424L9.27273 12.7315L12.4115 13.7571L12.8774 12.3313ZM10 1.87292V0.372925V1.87292ZM7.12268 12.3313L7.58811 13.7573L10.7286 12.7322L7.88998 11.0424L7.12268 12.3313ZM1.9594 16.5626L3.23809 17.3468L3.24824 17.3302L3.25796 17.3134L1.9594 16.5626ZM3.04143 17.1876L1.74311 16.4363L1.73294 16.4539L1.72324 16.4718L3.04143 17.1876ZM16.9586 17.1876L18.2768 16.4718L18.2671 16.4539L18.2569 16.4363L16.9586 17.1876ZM5.62503 7.50005L4.12503 7.50005L4.12503 7.50165L5.62503 7.50005ZM10 11.8751L9.99842 13.3751H10V11.8751ZM18.0407 16.5626L19.3391 15.8115C17.9676 13.4404 15.8404 11.7215 13.3433 10.9055L12.8774 12.3313L12.4115 13.7571C14.194 14.3396 15.7341 15.5707 16.7422 17.3136L18.0407 16.5626ZM12.8774 12.3313L13.6447 13.6202C14.9854 12.8221 16.027 11.6059 16.6097 10.1584L15.2182 9.59833L13.8267 9.03822C13.4894 9.87622 12.8863 10.5803 12.1101 11.0424L12.8774 12.3313ZM15.2182 9.59833L16.6097 10.1584C17.1923 8.71099 17.2837 7.11231 16.8698 5.6079L15.4235 6.0058L13.9772 6.4037C14.2169 7.27467 14.164 8.20022 13.8267 9.03822L15.2182 9.59833ZM15.4235 6.0058L16.8698 5.6079C16.4559 4.10349 15.5596 2.77654 14.3185 1.83082L13.4094 3.0239L12.5002 4.21697C13.2187 4.76449 13.7376 5.53272 13.9772 6.4037L15.4235 6.0058ZM13.4094 3.0239L14.3185 1.83082C13.0775 0.88511 11.5603 0.372925 10 0.372925V1.87292V3.37292C10.9034 3.37292 11.7817 3.66945 12.5002 4.21697L13.4094 3.0239ZM10 1.87292V0.372925C8.43972 0.372925 6.92255 0.88511 5.68151 1.83082L6.59067 3.0239L7.49983 4.21697C8.21833 3.66945 9.09669 3.37292 10 3.37292V1.87292ZM6.59067 3.0239L5.68151 1.83082C4.44047 2.77654 3.54418 4.10349 3.13028 5.6079L4.57654 6.0058L6.02281 6.4037C6.26243 5.53272 6.78134 4.76449 7.49983 4.21697L6.59067 3.0239ZM4.57654 6.0058L3.13028 5.6079C2.71638 7.11231 2.80776 8.71099 3.39039 10.1584L4.78189 9.59833L6.1734 9.03822C5.83609 8.20022 5.78318 7.27467 6.02281 6.4037L4.57654 6.0058ZM4.78189 9.59833L3.39039 10.1584C3.97302 11.6059 5.01467 12.8221 6.35539 13.6202L7.12268 12.3313L7.88998 11.0424C7.11377 10.5803 6.51071 9.87622 6.1734 9.03822L4.78189 9.59833ZM7.12268 12.3313L6.65725 10.9053C4.15967 11.7205 2.03236 13.4397 0.660848 15.8117L1.9594 16.5626L3.25796 17.3134C4.26613 15.5698 5.80601 14.3389 7.58811 13.7573L7.12268 12.3313ZM1.9594 16.5626L0.680722 15.7783C0.532366 16.0202 0.433964 16.2894 0.39132 16.57L1.87429 16.7954L3.35725 17.0208C3.33969 17.1363 3.29917 17.2471 3.23809 17.3468L1.9594 16.5626ZM1.87429 16.7954L0.39132 16.57C0.348675 16.8505 0.362653 17.1367 0.432427 17.4118L1.88638 17.043L3.34032 16.6742C3.36905 16.7874 3.37481 16.9053 3.35725 17.0208L1.87429 16.7954ZM1.88638 17.043L0.432427 17.4118C0.502201 17.6869 0.62636 17.9452 0.797575 18.1715L1.99377 17.2664L3.18997 16.3614C3.26047 16.4545 3.31159 16.5609 3.34032 16.6742L1.88638 17.043ZM1.99377 17.2664L0.797575 18.1715C0.96879 18.3977 1.1836 18.5875 1.42932 18.7294L2.17958 17.4305L2.92984 16.1316C3.03102 16.1901 3.11947 16.2682 3.18997 16.3614L1.99377 17.2664ZM2.17958 17.4305L1.42932 18.7294C1.67505 18.8713 1.94671 18.9626 2.22827 18.9978L2.41457 17.5095L2.60086 16.0211C2.71679 16.0356 2.82865 16.0732 2.92984 16.1316L2.17958 17.4305ZM2.41457 17.5095L2.22827 18.9978C2.50984 19.0331 2.79561 19.0116 3.06875 18.9346L2.66176 17.4909L2.25478 16.0471C2.36725 16.0154 2.48493 16.0066 2.60086 16.0211L2.41457 17.5095ZM2.66176 17.4909L3.06875 18.9346C3.34187 18.8576 3.59681 18.7267 3.81852 18.5496L2.88228 17.3776L1.94605 16.2057C2.03734 16.1327 2.14231 16.0788 2.25478 16.0471L2.66176 17.4909ZM2.88228 17.3776L3.81852 18.5496C4.04022 18.3724 4.22421 18.1527 4.35963 17.9033L3.04143 17.1876L1.72324 16.4718C1.779 16.3691 1.85476 16.2786 1.94605 16.2057L2.88228 17.3776ZM3.04143 17.1876L4.33976 17.9388C5.54966 15.8478 7.66245 14.6251 10 14.6251V13.1251V11.6251C6.5673 11.6251 3.47696 13.4398 1.74311 16.4363L3.04143 17.1876ZM10 13.1251V14.6251C12.3376 14.6251 14.4504 15.8478 15.6603 17.9388L16.9586 17.1876L18.2569 16.4363C16.5231 13.4398 13.4328 11.6251 10 11.6251V13.1251ZM16.9586 17.1876L15.6404 17.9033C15.7758 18.1527 15.9598 18.3724 16.1815 18.5496L17.1178 17.3776L18.054 16.2057C18.1453 16.2786 18.2211 16.3691 18.2768 16.4718L16.9586 17.1876ZM17.1178 17.3776L16.1815 18.5496C16.4032 18.7267 16.6582 18.8576 16.9313 18.9346L17.3383 17.4909L17.7453 16.0471C17.8577 16.0788 17.9627 16.1327 18.054 16.2057L17.1178 17.3776ZM17.3383 17.4909L16.9313 18.9346C17.2044 19.0116 17.4902 19.0331 17.7718 18.9978L17.5855 17.5095L17.3992 16.0211C17.5151 16.0066 17.6328 16.0154 17.7453 16.0471L17.3383 17.4909ZM17.5855 17.5095L17.7718 18.9978C18.0533 18.9626 18.325 18.8713 18.5707 18.7294L17.8205 17.4305L17.0702 16.1316C17.1714 16.0732 17.2833 16.0356 17.3992 16.0211L17.5855 17.5095ZM17.8205 17.4305L18.5707 18.7294C18.8165 18.5875 19.0313 18.3978 19.2025 18.1715L18.0063 17.2664L16.8101 16.3614C16.8806 16.2682 16.969 16.1901 17.0702 16.1316L17.8205 17.4305ZM18.0063 17.2664L19.2025 18.1715C19.3737 17.9452 19.4979 17.6869 19.5676 17.4118L18.1137 17.043L16.6597 16.6742C16.6885 16.5609 16.7396 16.4545 16.8101 16.3614L18.0063 17.2664ZM18.1137 17.043L19.5676 17.4118C19.6374 17.1367 19.6514 16.8505 19.6087 16.57L18.1258 16.7954L16.6428 17.0208C16.6252 16.9053 16.631 16.7874 16.6597 16.6742L18.1137 17.043ZM18.1258 16.7954L19.6087 16.57C19.5661 16.2894 19.4677 16.0203 19.3193 15.7783L18.0407 16.5626L16.762 17.3468C16.7009 17.2471 16.6604 17.1363 16.6428 17.0208L18.1258 16.7954ZM5.62503 7.50005L7.12503 7.50005C7.12503 6.93143 7.29364 6.37558 7.60955 5.90279L6.36235 5.06943L5.11514 4.23608C4.46959 5.20221 4.12503 6.33809 4.12503 7.50005L5.62503 7.50005ZM6.36235 5.06943L7.60955 5.90279C7.92546 5.42999 8.37448 5.0615 8.89981 4.8439L8.32579 3.45808L7.75176 2.07226C6.67825 2.51692 5.7607 3.26994 5.11514 4.23608L6.36235 5.06943ZM8.32579 3.45808L8.89981 4.8439C9.42515 4.62629 10.0032 4.56936 10.5609 4.68029L10.8535 3.20911L11.1462 1.73794C10.0065 1.51125 8.82528 1.62759 7.75176 2.07226L8.32579 3.45808ZM10.8535 3.20911L10.5609 4.68029C11.1186 4.79122 11.6309 5.06504 12.033 5.46712L13.0936 4.40646L14.1543 3.3458C13.3326 2.52416 12.2858 1.96462 11.1462 1.73794L10.8535 3.20911ZM13.0936 4.40646L12.033 5.46712C12.435 5.86919 12.7089 6.38147 12.8198 6.93917L14.291 6.64653L15.7621 6.35389C15.5355 5.21426 14.9759 4.16743 14.1543 3.3458L13.0936 4.40646ZM14.291 6.64653L12.8198 6.93917C12.9307 7.49686 12.8738 8.07493 12.6562 8.60027L14.042 9.17429L15.4278 9.74832C15.8725 8.6748 15.9888 7.49353 15.7621 6.35389L14.291 6.64653ZM14.042 9.17429L12.6562 8.60027C12.4386 9.1256 12.0701 9.57462 11.5973 9.89053L12.4306 11.1377L13.264 12.3849C14.2301 11.7394 14.9832 10.8218 15.4278 9.74832L14.042 9.17429ZM12.4306 11.1377L11.5973 9.89053C11.1245 10.2064 10.5687 10.3751 10 10.3751V11.8751V13.3751C11.162 13.3751 12.2979 13.0305 13.264 12.3849L12.4306 11.1377ZM10 11.8751L10.0016 10.3751C9.23896 10.3742 8.50776 10.0709 7.96847 9.53161L6.90781 10.5923L5.84715 11.6529C6.94826 12.754 8.44121 13.3734 9.99842 13.375L10 11.8751ZM6.90781 10.5923L7.96847 9.53161C7.42918 8.99232 7.12584 8.26112 7.12503 7.49845L5.62503 7.50005L4.12503 7.50165C4.1267 9.05886 4.74603 10.5518 5.84715 11.6529L6.90781 10.5923Z" fill="#272727" mask="url(#path-1-inside-1_28994_267)"/>
</svg>
