<svg width="40" height="33" viewBox="0 0 40 33" fill="none" xmlns="http://www.w3.org/2000/svg">
<g clip-path="url(#clip0_29030_189)">
<path d="M30.0888 15.9417C31.3831 15.9417 32.554 15.4455 33.4785 14.5151C35.3273 12.6541 35.3273 9.55265 33.4785 7.69172C32.554 6.76125 31.3831 6.26501 30.0888 6.26501C28.7946 6.26501 27.6236 6.76125 26.6992 7.69172C24.8503 9.55265 24.8503 12.6541 26.6992 14.5151C27.562 15.4455 28.7946 15.9417 30.0888 15.9417ZM27.562 8.62218C28.2399 7.93981 29.1027 7.56764 30.0888 7.56764C31.0133 7.56764 31.9377 7.93981 32.6156 8.62218C34.0332 10.0488 34.0332 12.282 32.6156 13.7087C31.9377 14.391 31.0133 14.7632 30.0888 14.7632C29.1644 14.7632 28.2399 14.391 27.562 13.7087C26.1445 12.282 26.1445 9.98687 27.562 8.62218Z" fill="#C29D68"/>
<path d="M1.24911 20.532C2.66659 20.532 3.34452 20.9662 4.08408 21.4625C4.88527 21.9587 5.80971 22.5791 7.597 22.5791C9.38422 22.5791 10.3087 21.9587 11.1099 21.4625C11.911 20.9662 12.5274 20.532 13.9448 20.532C15.3623 20.532 16.0402 20.9662 16.7798 21.4625C17.581 21.9587 18.5055 22.5791 20.2927 22.5791C22.08 22.5791 23.0044 21.9587 23.8056 21.4625C24.6068 20.9662 25.2231 20.532 26.6405 20.532C28.0581 20.532 28.736 20.9662 29.4756 21.4625C30.2767 21.9587 31.2011 22.5791 32.9884 22.5791C34.7757 22.5791 35.7002 21.9587 36.5013 21.4625C37.3025 20.9662 37.9188 20.532 39.3363 20.532C39.7061 20.532 39.9526 20.2839 39.9526 19.9118C39.9526 19.5396 39.7061 19.2914 39.3363 19.2914C37.549 19.2914 36.6246 19.9118 35.8234 20.408C35.0222 20.9042 34.4059 21.3384 32.9884 21.3384C31.571 21.3384 30.893 20.9042 30.1535 20.408C29.7221 20.1598 29.2906 19.8497 28.6744 19.6636C28.6744 19.6016 28.6127 19.5396 28.5511 19.4775L18.1357 8.93239L22.2649 4.77634C23.3742 3.65979 23.3742 1.92294 22.2649 0.806396C21.7718 0.248121 21.0323 0 20.2927 0C19.5531 0 18.8752 0.310152 18.3205 0.806396L12.0343 7.31961C11.1715 8.18797 11.1715 9.55266 12.0343 10.4211L15.917 14.329L9.19937 20.9662L9.13773 21.0283C8.70632 21.1524 8.27491 21.2764 7.597 21.2764C6.17949 21.2764 5.50156 20.8422 4.76201 20.346C3.96082 19.8497 3.03637 19.2294 1.24911 19.2294C0.879332 19.2294 0.632812 19.4775 0.632812 19.8497C0.632812 20.2219 0.879332 20.532 1.24911 20.532ZM17.2112 13.8328L12.8971 9.49062C12.7122 9.30456 12.6506 9.0564 12.6506 8.80831C12.6506 8.56021 12.7739 8.31205 12.8971 8.126L19.3066 1.67482C19.6148 1.36467 19.9845 1.2406 20.416 1.2406C20.8474 1.2406 21.2171 1.4267 21.5253 1.67482C22.1416 2.29513 22.1416 3.28761 21.5253 3.84588L16.9647 8.43614C16.7182 8.68423 16.7182 9.0564 16.9647 9.30456L26.8255 19.2294C26.8255 19.2294 26.8255 19.2294 26.7638 19.2294C24.9765 19.2294 24.0521 19.8497 23.2509 20.346C22.4497 20.8422 21.8335 21.2764 20.416 21.2764C18.9984 21.2764 18.3205 20.8422 17.581 20.346C16.7798 19.8497 15.8554 19.2294 14.0681 19.2294C13.4518 19.2294 12.9588 19.2914 12.5274 19.4155L17.2112 14.7012C17.3344 14.5771 17.3961 14.4531 17.3961 14.267C17.3344 14.0809 17.2729 13.9568 17.2112 13.8328Z" fill="#C29D68"/>
<path d="M1.24911 25.7426C2.66659 25.7426 3.34452 26.1768 4.08408 26.673C4.88527 27.1693 5.80971 27.7896 7.597 27.7896C9.38422 27.7896 10.3087 27.1693 11.1099 26.673C11.911 26.1768 12.5274 25.7426 13.9448 25.7426C15.3623 25.7426 16.0402 26.1768 16.7798 26.673C17.581 27.1693 18.5055 27.7896 20.2927 27.7896C22.08 27.7896 23.0044 27.1693 23.8056 26.673C24.6068 26.1768 25.2231 25.7426 26.6405 25.7426C28.0581 25.7426 28.736 26.1768 29.4756 26.673C30.2767 27.1693 31.2011 27.7896 32.9884 27.7896C34.7757 27.7896 35.7002 27.1693 36.5013 26.673C37.3025 26.1768 37.9188 25.7426 39.3363 25.7426C39.7061 25.7426 39.9526 25.4945 39.9526 25.1223C39.9526 24.7501 39.7061 24.502 39.3363 24.502C37.549 24.502 36.6246 25.1223 35.8234 25.6185C35.0222 26.1148 34.4059 26.549 32.9884 26.549C31.571 26.549 30.893 26.1148 30.1535 25.6185C29.3523 25.1223 28.4278 24.502 26.6405 24.502C24.8533 24.502 23.9289 25.1223 23.1277 25.6185C22.3265 26.1148 21.7102 26.549 20.2927 26.549C18.8752 26.549 18.1973 26.1148 17.4577 25.6185C16.6565 25.1223 15.7321 24.502 13.9448 24.502C12.1576 24.502 11.2331 25.1223 10.432 25.6185C9.63078 26.1148 9.01445 26.549 7.597 26.549C6.17949 26.549 5.50156 26.1148 4.76201 25.6185C3.96082 25.1223 3.03637 24.502 1.24911 24.502C0.879332 24.502 0.632812 24.7501 0.632812 25.1223C0.632812 25.4945 0.879332 25.7426 1.24911 25.7426Z" fill="#C29D68"/>
<path d="M1.24911 30.9531C2.66659 30.9531 3.34452 31.3873 4.08408 31.8836C4.88527 32.3798 5.80971 33.0001 7.597 33.0001C9.38422 33.0001 10.3087 32.3798 11.1099 31.8836C11.911 31.3873 12.5274 30.9531 13.9448 30.9531C15.3623 30.9531 16.0402 31.3873 16.7798 31.8836C17.581 32.3798 18.5055 33.0001 20.2927 33.0001C22.08 33.0001 23.0044 32.3798 23.8056 31.8836C24.6068 31.3873 25.2231 30.9531 26.6405 30.9531C28.0581 30.9531 28.736 31.3873 29.4756 31.8836C30.2767 32.3798 31.2011 33.0001 32.9884 33.0001C34.7757 33.0001 35.7002 32.3798 36.5013 31.8836C37.3025 31.3873 37.9188 30.9531 39.3363 30.9531C39.7061 30.9531 39.9526 30.705 39.9526 30.3329C39.9526 29.9606 39.7061 29.7125 39.3363 29.7125C37.549 29.7125 36.6246 30.3329 35.8234 30.829C35.0222 31.3253 34.4059 31.7595 32.9884 31.7595C31.571 31.7595 30.893 31.3253 30.1535 30.829C29.3523 30.3329 28.4278 29.7125 26.6405 29.7125C24.8533 29.7125 23.9289 30.3329 23.1277 30.829C22.3265 31.3253 21.7102 31.7595 20.2927 31.7595C18.8752 31.7595 18.1973 31.3253 17.4577 30.829C16.6565 30.3329 15.7321 29.7125 13.9448 29.7125C12.1576 29.7125 11.2331 30.3329 10.432 30.829C9.63078 31.3253 9.01445 31.7595 7.597 31.7595C6.17949 31.7595 5.50156 31.3253 4.76201 30.829C3.96082 30.3329 3.03637 29.7125 1.24911 29.7125C0.879332 29.7125 0.632812 29.9606 0.632812 30.3329C0.632812 30.705 0.879332 30.9531 1.24911 30.9531Z" fill="#C29D68"/>
</g>
<defs>
<clipPath id="clip0_29030_189">
<rect width="40" height="33" fill="white"/>
</clipPath>
</defs>
</svg>
