<svg width="72" height="59" viewBox="0 0 72 59" fill="none" xmlns="http://www.w3.org/2000/svg">
<g clip-path="url(#clip0_29100_185)">
<path d="M54.1599 28.5019C56.4895 28.5019 58.5972 27.6148 60.2612 25.9513C63.5892 22.6241 63.5892 17.0791 60.2612 13.7519C58.5972 12.0884 56.4895 11.2012 54.1599 11.2012C51.8303 11.2012 49.7226 12.0884 48.0585 13.7519C44.7305 17.0791 44.7305 22.6241 48.0585 25.9513C49.6116 27.6148 51.8303 28.5019 54.1599 28.5019ZM49.6116 15.4155C50.8318 14.1955 52.3849 13.5301 54.1599 13.5301C55.8239 13.5301 57.4879 14.1955 58.7082 15.4155C61.2597 17.9662 61.2597 21.9587 58.7082 24.5095C57.4879 25.7294 55.8239 26.3948 54.1599 26.3948C52.4959 26.3948 50.8318 25.7294 49.6116 24.5095C47.0601 21.9587 47.0601 17.8554 49.6116 15.4155Z" fill="white"/>
<path d="M2.24996 36.7088C4.80143 36.7088 6.0217 37.4851 7.35291 38.3723C8.79504 39.2596 10.459 40.3687 13.6762 40.3687C16.8932 40.3687 18.5572 39.2596 19.9993 38.3723C21.4414 37.4851 22.5508 36.7088 25.1022 36.7088C27.6537 36.7088 28.874 37.4851 30.2052 38.3723C31.6474 39.2596 33.3114 40.3687 36.5284 40.3687C39.7455 40.3687 41.4095 39.2596 42.8516 38.3723C44.2938 37.4851 45.4031 36.7088 47.9545 36.7088C50.5061 36.7088 51.7263 37.4851 53.0576 38.3723C54.4997 39.2596 56.1636 40.3687 59.3807 40.3687C62.5978 40.3687 64.2618 39.2596 65.704 38.3723C67.1461 37.4851 68.2555 36.7088 70.8069 36.7088C71.4725 36.7088 71.9163 36.2652 71.9163 35.5998C71.9163 34.9344 71.4725 34.4907 70.8069 34.4907C67.5898 34.4907 65.9259 35.5998 64.4836 36.487C63.0415 37.3742 61.9322 38.1505 59.3807 38.1505C56.8293 38.1505 55.609 37.3742 54.2778 36.487C53.5013 36.0434 52.7247 35.4889 51.6155 35.1561C51.6155 35.0453 51.5045 34.9344 51.3936 34.8235L32.6458 15.97L40.0783 8.53951C42.0751 6.54327 42.0751 3.43798 40.0783 1.44174C39.1908 0.443611 37.8597 0 36.5284 0C35.1972 0 33.977 0.554514 32.9785 1.44174L21.6633 13.0866C20.1103 14.6391 20.1103 17.079 21.6633 18.6316L28.6522 25.6185L16.5604 37.4851L16.4495 37.596C15.6729 37.8179 14.8964 38.0397 13.6762 38.0397C11.1246 38.0397 9.90437 37.2634 8.57318 36.3761C7.13104 35.4889 5.46704 34.3798 2.24996 34.3798C1.58436 34.3798 1.14062 34.8235 1.14062 35.4889C1.14062 36.1543 1.58436 36.7088 2.24996 36.7088ZM30.9818 24.7313L23.2164 16.9681C22.8836 16.6354 22.7727 16.1918 22.7727 15.7482C22.7727 15.3046 22.9945 14.8609 23.2164 14.5283L34.7535 2.99437C35.3082 2.43987 35.9737 2.21805 36.7503 2.21805C37.5268 2.21805 38.1924 2.55076 38.747 2.99437C39.8564 4.10341 39.8564 5.87784 38.747 6.87597L30.538 15.0828C30.0943 15.5264 30.0943 16.1918 30.538 16.6354L48.2874 34.3798C48.2874 34.3798 48.2874 34.3798 48.1764 34.3798C44.9593 34.3798 43.2953 35.4889 41.8532 36.3761C40.4111 37.2634 39.3018 38.0397 36.7503 38.0397C34.1988 38.0397 32.9785 37.2634 31.6474 36.3761C30.2052 35.4889 28.5412 34.3798 25.3241 34.3798C24.2148 34.3798 23.3274 34.4907 22.5508 34.7126L30.9818 26.2839C31.2036 26.0621 31.3145 25.8404 31.3145 25.5076C31.2036 25.175 31.0927 24.9531 30.9818 24.7313Z" fill="white"/>
<path d="M2.24996 46.0247C4.80143 46.0247 6.0217 46.801 7.35291 47.6881C8.79504 48.5754 10.459 49.6845 13.6762 49.6845C16.8932 49.6845 18.5572 48.5754 19.9993 47.6881C21.4414 46.801 22.5508 46.0247 25.1022 46.0247C27.6537 46.0247 28.874 46.801 30.2052 47.6881C31.6474 48.5754 33.3114 49.6845 36.5284 49.6845C39.7455 49.6845 41.4095 48.5754 42.8516 47.6881C44.2938 46.801 45.4031 46.0247 47.9545 46.0247C50.5061 46.0247 51.7263 46.801 53.0576 47.6881C54.4997 48.5754 56.1636 49.6845 59.3807 49.6845C62.5978 49.6845 64.2618 48.5754 65.704 47.6881C67.1461 46.801 68.2555 46.0247 70.8069 46.0247C71.4725 46.0247 71.9163 45.581 71.9163 44.9156C71.9163 44.2502 71.4725 43.8065 70.8069 43.8065C67.5898 43.8065 65.9259 44.9156 64.4836 45.8028C63.0415 46.6901 61.9322 47.4664 59.3807 47.4664C56.8293 47.4664 55.609 46.6901 54.2778 45.8028C52.8357 44.9156 51.1716 43.8065 47.9545 43.8065C44.7376 43.8065 43.0735 44.9156 41.6314 45.8028C40.1893 46.6901 39.0799 47.4664 36.5284 47.4664C33.977 47.4664 32.7566 46.6901 31.4255 45.8028C29.9833 44.9156 28.3193 43.8065 25.1022 43.8065C21.8852 43.8065 20.2212 44.9156 18.7791 45.8028C17.337 46.6901 16.2276 47.4664 13.6762 47.4664C11.1246 47.4664 9.90437 46.6901 8.57318 45.8028C7.13104 44.9156 5.46704 43.8065 2.24996 43.8065C1.58436 43.8065 1.14062 44.2502 1.14062 44.9156C1.14062 45.581 1.58436 46.0247 2.24996 46.0247Z" fill="white"/>
<path d="M2.24996 55.3404C4.80143 55.3404 6.0217 56.1167 7.35291 57.004C8.79504 57.8912 10.459 59.0002 13.6762 59.0002C16.8932 59.0002 18.5572 57.8912 19.9993 57.004C21.4414 56.1167 22.5508 55.3404 25.1022 55.3404C27.6537 55.3404 28.874 56.1167 30.2052 57.004C31.6474 57.8912 33.3114 59.0002 36.5284 59.0002C39.7455 59.0002 41.4095 57.8912 42.8516 57.004C44.2938 56.1167 45.4031 55.3404 47.9545 55.3404C50.5061 55.3404 51.7263 56.1167 53.0576 57.004C54.4997 57.8912 56.1636 59.0002 59.3807 59.0002C62.5978 59.0002 64.2618 57.8912 65.704 57.004C67.1461 56.1167 68.2555 55.3404 70.8069 55.3404C71.4725 55.3404 71.9163 54.8969 71.9163 54.2315C71.9163 53.5659 71.4725 53.1224 70.8069 53.1224C67.5898 53.1224 65.9259 54.2315 64.4836 55.1186C63.0415 56.0058 61.9322 56.7821 59.3807 56.7821C56.8293 56.7821 55.609 56.0058 54.2778 55.1186C52.8357 54.2315 51.1716 53.1224 47.9545 53.1224C44.7376 53.1224 43.0735 54.2315 41.6314 55.1186C40.1893 56.0058 39.0799 56.7821 36.5284 56.7821C33.977 56.7821 32.7566 56.0058 31.4255 55.1186C29.9833 54.2315 28.3193 53.1224 25.1022 53.1224C21.8852 53.1224 20.2212 54.2315 18.7791 55.1186C17.337 56.0058 16.2276 56.7821 13.6762 56.7821C11.1246 56.7821 9.90437 56.0058 8.57318 55.1186C7.13104 54.2315 5.46704 53.1224 2.24996 53.1224C1.58436 53.1224 1.14062 53.5659 1.14062 54.2315C1.14062 54.8969 1.58436 55.3404 2.24996 55.3404Z" fill="white"/>
</g>
<defs>
<clipPath id="clip0_29100_185">
<rect width="72" height="59" fill="white"/>
</clipPath>
</defs>
</svg>
