<svg width="35" height="35" viewBox="0 0 35 35" fill="none" xmlns="http://www.w3.org/2000/svg">
<path d="M22.9453 13.9299L28.3894 16.3253C29.4938 16.8112 30.218 17.988 30.218 19.2965L30.2181 33.1299" stroke="#FCFCFC" stroke-width="2.25" stroke-linecap="round" stroke-linejoin="round"/>
<path d="M11.3203 12.3303H15.6839M11.3203 18.7303H15.684" stroke="#FCFCFC" stroke-width="2.25" stroke-linecap="round" stroke-linejoin="round"/>
<path d="M16.4041 33.13L16.4041 26.73C16.4041 25.8464 15.7529 25.13 14.9496 25.13H12.0405C11.2372 25.13 10.5859 25.8464 10.5859 26.73L10.5859 33.13" stroke="#FCFCFC" stroke-width="2.25" stroke-linecap="round" stroke-linejoin="round"/>
<path d="M1.125 33.1298H33.125" stroke="#FCFCFC" stroke-width="2.25" stroke-linecap="round" stroke-linejoin="round"/>
<path d="M4.04728 33.1302L4.04688 2.73001C4.04746 1.68542 4.94307 0.92158 5.86292 1.18121L21.847 5.69279C22.4902 5.87433 22.94 6.5121 22.94 7.24255L22.9563 32.9708" stroke="#FCFCFC" stroke-width="2.25"/>
</svg>
