<svg width="35" height="32" viewBox="0 0 35 32" fill="none" xmlns="http://www.w3.org/2000/svg">
<path d="M12.3203 12.325C12.3203 18.5106 17.1203 23.525 17.1203 23.525C17.1203 23.525 21.9203 18.5106 21.9203 12.325C21.9203 6.13951 17.1203 1.125 17.1203 1.125C17.1203 1.125 12.3203 6.13951 12.3203 12.325Z" stroke="white" stroke-width="2.25" stroke-linejoin="round"/>
<path d="M8.05449 9.12475C4.50772 7.59867 1.125 7.52475 1.125 7.52475C1.125 7.52475 1.27817 14.535 5.69641 18.9534C10.1148 23.3717 17.125 23.5248 17.125 23.5248C17.125 23.5248 24.1352 23.3717 28.5537 18.9534C32.9719 14.535 33.125 7.52475 33.125 7.52475C33.125 7.52475 29.7423 7.59867 26.1955 9.12475" stroke="white" stroke-width="2.25" stroke-linecap="round" stroke-linejoin="round"/>
<path d="M17.1582 23.5248C16.892 25.6582 18.1816 29.9248 22.7467 29.9248C25.9399 29.9248 27.5365 26.7248 33.125 29.9248C32.485 26.7247 31.2047 24.6767 29.3377 23.5248M17.0918 23.5248C17.358 25.6582 16.0684 29.9248 11.5035 29.9248C8.31006 29.9248 6.71337 26.7248 1.125 29.9248C1.7651 26.7247 3.04532 24.6767 4.91231 23.5248" stroke="white" stroke-width="2.25" stroke-linecap="round" stroke-linejoin="round"/>
</svg>
