<svg width="35" height="32" viewBox="0 0 35 32" fill="none" xmlns="http://www.w3.org/2000/svg">
<path d="M1.92969 15.5253L5.12969 17.1253" stroke="#FCFCFC" stroke-width="2.25" stroke-linecap="round" stroke-linejoin="round"/>
<path d="M32.325 16.3251L29.125 17.1251" stroke="#FCFCFC" stroke-width="2.25" stroke-linecap="round" stroke-linejoin="round"/>
<path d="M10.7266 24.3256L11.1196 23.3429C11.7042 21.8815 11.9964 21.1509 12.6059 20.7382C13.2154 20.3256 14.0024 20.3256 15.5764 20.3256H18.6768C20.2507 20.3256 21.0378 20.3256 21.6472 20.7382C22.2567 21.1509 22.549 21.8815 23.1335 23.3429L23.5266 24.3256" stroke="#FCFCFC" stroke-width="2.25" stroke-linecap="round" stroke-linejoin="round"/>
<path d="M1.125 23.525L1.12501 28.1362C1.12501 28.7421 1.51018 29.2962 2.11999 29.5672C2.51573 29.743 2.89365 29.925 3.34997 29.925H6.10005C6.55637 29.925 6.93429 29.743 7.33002 29.5672C7.93983 29.2962 8.32501 28.7421 8.32501 28.1362L8.325 25.125" stroke="#FCFCFC" stroke-width="2.25" stroke-linecap="round" stroke-linejoin="round"/>
<path d="M25.9219 25.1246L25.9219 28.1359C25.9219 28.7417 26.3072 29.2958 26.917 29.5669C27.3126 29.7427 27.6905 29.9246 28.1468 29.9246H30.8969C31.3532 29.9246 31.7312 29.7427 32.1268 29.5669C32.7366 29.2958 33.1219 28.7417 33.1219 28.1359L33.1219 23.5247" stroke="#FCFCFC" stroke-width="2.25" stroke-linecap="round" stroke-linejoin="round"/>
<path d="M29.9219 9.9252L31.5219 9.1252" stroke="#FCFCFC" stroke-width="2.25" stroke-linecap="round" stroke-linejoin="round"/>
<path d="M4.32656 9.9251L2.72656 9.1251" stroke="#FCFCFC" stroke-width="2.25" stroke-linecap="round" stroke-linejoin="round"/>
<path d="M5.12501 10.725L6.86634 5.50111C7.57034 3.38911 7.92234 2.333 8.76031 1.72905C9.59839 1.125 10.7116 1.125 12.9379 1.125L21.3122 1.125C23.5384 1.125 24.6515 1.125 25.4896 1.72905C26.3277 2.333 26.6797 3.38911 27.3837 5.50111L29.125 10.725" stroke="#FCFCFC" stroke-width="2.25" stroke-linejoin="round"/>
<path d="M5.125 10.725L29.125 10.725C30.6565 12.3465 33.125 14.6048 33.125 17.1243L33.125 22.6773C33.125 23.59 32.5179 24.3582 31.7119 24.4649L26.725 25.125H7.52502L2.53803 24.4649C1.73227 24.3582 1.12502 23.59 1.12501 22.6773L1.12501 17.1243C1.125 14.6048 3.59348 12.3465 5.125 10.725Z" stroke="#FCFCFC" stroke-width="2.25" stroke-linejoin="round"/>
</svg>
