<svg width="20" height="20" viewBox="0 0 20 20" fill="none" xmlns="http://www.w3.org/2000/svg">
<path d="M17.7602 7.10958L10.2602 2.10958C10.1831 2.05819 10.0926 2.03076 10 2.03076C9.9074 2.03076 9.81687 2.05819 9.73984 2.10958L2.23984 7.10958C2.17558 7.15246 2.1229 7.21056 2.08651 7.27871C2.05012 7.34686 2.03114 7.42295 2.03125 7.50021V15.6252C2.03125 15.9153 2.14648 16.1935 2.3516 16.3986C2.55672 16.6037 2.83492 16.719 3.125 16.719H16.875C17.1651 16.719 17.4433 16.6037 17.6484 16.3986C17.8535 16.1935 17.9688 15.9153 17.9688 15.6252V7.50021C17.9689 7.42295 17.9499 7.34686 17.9135 7.27871C17.8771 7.21056 17.8244 7.15246 17.7602 7.10958ZM10 3.06349L16.6742 7.51661L11.2133 11.4065H8.78672L3.32578 7.51349L10 3.06349ZM16.875 15.7815H3.125C3.08356 15.7815 3.04382 15.765 3.01451 15.7357C2.98521 15.7064 2.96875 15.6666 2.96875 15.6252V8.41036L8.36406 12.2572C8.44383 12.3136 8.53907 12.3439 8.63672 12.344H11.3633C11.4609 12.3439 11.5562 12.3136 11.6359 12.2572L17.0312 8.41036V15.6252C17.0312 15.6666 17.0148 15.7064 16.9855 15.7357C16.9562 15.765 16.9164 15.7815 16.875 15.7815Z" fill="white"/>
</svg>
