<svg width="48" height="48" viewBox="0 0 48 48" fill="none" xmlns="http://www.w3.org/2000/svg">
<path d="M10 16.0555V10.0222C10 7.79994 11.8005 6 14.0235 6H40.1764C42.3994 6 44.2 7.79994 44.2 10.0222V38.1778C44.2 40.4 42.3994 42.2 40.1764 42.2H24.0824H12.4C11.0745 42.2 10 41.1254 10 39.8V37" stroke="#004040" stroke-linecap="round" stroke-linejoin="round"/>
<path d="M26.9999 14C29.762 14 32 16.238 32 19C32 21.7621 29.762 24.0001 26.9999 24.0001C24.238 24.0001 22 21.7621 22 19C22 16.238 24.238 14 26.9999 14Z" stroke="#004040" stroke-linecap="round" stroke-linejoin="round"/>
<path d="M36 35.9999C35.738 34.2453 35.3321 32.6667 34.812 31.3814C33.9341 29.2053 32.784 28 31.584 28C29.5841 28 24.416 28 22.416 28C21.216 28 20.0681 29.2107 19.188 31.3814C18.668 32.6667 18.2621 34.2453 18 35.9999" stroke="#004040" stroke-linecap="round" stroke-linejoin="round"/>
<path d="M13.1641 23.3448H15.9933V20.5137" stroke="#004040" stroke-linecap="round" stroke-linejoin="round"/>
<path d="M6.83699 29.4688H4.00781V32.2999" stroke="#004040" stroke-linecap="round" stroke-linejoin="round"/>
<path d="M16.0036 28.541C15.7035 29.4134 15.2313 30.2377 14.533 30.9341C12.032 33.4351 7.97631 33.4351 5.47527 30.9341C5.03109 30.4898 4.66894 29.9936 4.38281 29.4674" stroke="#004040" stroke-linecap="round" stroke-linejoin="round"/>
<path d="M15.6268 23.3424C15.3407 22.8161 14.9786 22.3219 14.5343 21.8758C12.0333 19.3747 7.97766 19.3747 5.47661 21.8758C4.77833 22.5741 4.30013 23.3964 4 24.2687" stroke="#004040" stroke-linecap="round" stroke-linejoin="round"/>
</svg>
