<svg width="48" height="48" viewBox="0 0 48 48" fill="none" xmlns="http://www.w3.org/2000/svg">
<path d="M13.0029 20.0058C16.8705 20.0058 20.0058 16.8705 20.0058 13.0029C20.0058 9.13531 16.8705 6 13.0029 6C9.13531 6 6 9.13531 6 13.0029C6 16.8705 9.13531 20.0058 13.0029 20.0058Z" stroke="#004040" stroke-linecap="round" stroke-linejoin="round"/>
<path d="M9 18.749V28.0088L13.0016 26.0081L17.0033 28.0088V18.749" stroke="#004040" stroke-linecap="round" stroke-linejoin="round"/>
<path d="M22.0823 6H38.1765C40.3995 6 42.2 7.79994 42.2 10.0222V38.1778C42.2 40.4001 40.3995 42.2 38.1765 42.2H12.0236C9.80053 42.2 8 40.4001 8 38.1778V32.1444" stroke="#004040" stroke-linecap="round" stroke-linejoin="round"/>
<path d="M36 35H18" stroke="#004040" stroke-linecap="round" stroke-linejoin="round"/>
<path d="M36 27H26" stroke="#004040" stroke-linecap="round" stroke-linejoin="round"/>
<path d="M36 19H26" stroke="#004040" stroke-linecap="round" stroke-linejoin="round"/>
</svg>
