<svg width="50" height="50" viewBox="0 0 50 50" fill="none" xmlns="http://www.w3.org/2000/svg">
<g clip-path="url(#clip0_28854_298)">
<path d="M23.3442 5.29474L13.177 11.3201C12.7429 11.5815 12.3741 11.9384 12.0985 12.3637C11.823 12.789 11.648 13.2714 11.5869 13.7745C11.5257 14.2775 11.58 14.7878 11.7457 15.2668C11.9113 15.7456 12.1839 16.1805 12.5427 16.5383C12.832 16.8286 13.1747 17.0602 13.5518 17.2205V20.2093C13.552 20.3457 13.5812 20.4805 13.6375 20.6048C13.6939 20.7291 13.776 20.84 13.8785 20.93C13.9802 21.019 14.0996 21.0855 14.2287 21.1252C14.3578 21.165 14.494 21.1771 14.6281 21.1606C21.5587 20.2957 28.57 20.2957 35.5007 21.1606H35.6064C35.8613 21.1606 36.1057 21.0594 36.2859 20.8792C36.4661 20.6989 36.5673 20.4545 36.5673 20.1997V17.2205C37.1254 16.973 37.6046 16.5767 37.9523 16.0749C38.2999 15.573 38.5027 14.9852 38.5385 14.3758C38.5742 13.7663 38.4415 13.1588 38.1548 12.6199C37.8681 12.0808 37.4386 11.6312 36.9133 11.3201L26.7269 5.29474C26.2143 4.99306 25.6303 4.83398 25.0355 4.83398C24.4408 4.83398 23.8568 4.99306 23.3442 5.29474ZM15.4257 19.1618V17.4512C21.8028 16.5829 28.2682 16.5829 34.6454 17.4512V19.1618C28.2587 18.4477 21.8123 18.4477 15.4257 19.1618ZM36.5673 14.1839C36.5676 14.5462 36.4278 14.8946 36.1771 15.1561C35.9263 15.4176 35.584 15.572 35.222 15.5869C28.4393 14.6259 21.5549 14.6259 14.7723 15.5869C14.4106 15.5782 14.0663 15.4301 13.8112 15.1737C13.6825 15.0485 13.5798 14.8993 13.5089 14.7344C13.438 14.5695 13.4003 14.3922 13.398 14.2126C13.3987 13.9682 13.4628 13.7281 13.5842 13.5159C13.7054 13.3037 13.8797 13.1266 14.0899 13.0019L24.3148 6.94764C24.5336 6.82018 24.7823 6.75301 25.0355 6.75301C25.2888 6.75301 25.5374 6.82018 25.7563 6.94764L35.9139 12.973C36.117 13.1025 36.2837 13.2816 36.398 13.4935C36.5123 13.7054 36.5707 13.943 36.5673 14.1839Z" fill="white"/>
<path d="M35.0263 23.0923C35.1813 22.8908 35.25 22.636 35.2176 22.3838C35.1852 22.1317 35.0542 21.9027 34.8533 21.7469C34.7532 21.6686 34.6386 21.611 34.5161 21.5774C34.3936 21.5436 34.2657 21.5346 34.1397 21.5508C34.0137 21.5668 33.8922 21.6077 33.7821 21.671C33.672 21.7344 33.5755 21.819 33.4983 21.9199C33.3638 22.1121 29.9523 26.4749 24.4266 26.1674C22.8946 26.0428 21.405 25.6018 20.052 24.8724C18.699 24.143 17.5119 23.1408 16.5657 21.9295C16.49 21.8285 16.3951 21.7434 16.2866 21.6791C16.1779 21.6149 16.0577 21.5726 15.9328 21.5547C15.8079 21.5369 15.6807 21.5438 15.5584 21.5752C15.4362 21.6064 15.3213 21.6615 15.2203 21.7373C15.1194 21.813 15.0344 21.9079 14.97 22.0164C14.9057 22.1251 14.8634 22.2453 14.8456 22.3702C14.8277 22.4951 14.8347 22.6223 14.866 22.7446C14.8974 22.8668 14.9525 22.9817 15.0281 23.0827C16.1351 24.5259 17.5359 25.7177 19.1379 26.5791C20.7399 27.4406 22.5065 27.9521 24.3209 28.0798H25.0128C26.9446 28.0288 28.8419 27.5559 30.5716 26.6944C32.3014 25.8329 33.8218 24.6034 35.0263 23.0923Z" fill="white"/>
<path d="M49.3978 14.7896L45.3616 12.2045L45.1407 17.0095L46.4091 16.3655C48.2617 20.9452 48.5948 25.9986 47.3595 30.7819C46.1241 35.5651 43.3856 39.8251 39.5471 42.935C35.7086 46.0448 30.973 47.8399 26.0376 48.056C21.1022 48.2722 16.2278 46.8978 12.1322 44.1355C8.03653 41.3731 4.93607 37.3687 3.28732 32.7119C1.63857 28.055 1.52867 22.9918 2.97379 18.2677C4.41892 13.5437 7.3427 9.40847 11.3146 6.47099C15.2866 3.53352 20.0967 1.94902 25.0368 1.95079C25.2917 1.95079 25.5362 1.84954 25.7164 1.66932C25.8966 1.4891 25.9978 1.24467 25.9978 0.989802C25.9978 0.734933 25.8966 0.490503 25.7164 0.310283C25.5362 0.130063 25.2917 0.0288166 25.0368 0.0288166C19.6757 0.0245327 14.4553 1.74477 10.1469 4.93541C5.83862 8.12604 2.67078 12.6178 1.11146 17.7473C-0.447866 22.8766 -0.315979 28.3715 1.48764 33.4202C3.29125 38.4688 6.67094 42.8035 11.1274 45.7837C15.5839 48.764 20.8808 50.2318 26.2355 49.9703C31.5903 49.7088 36.719 47.7319 40.8639 44.3317C45.0088 40.9314 47.95 36.288 49.2532 31.0876C50.5563 25.8873 50.1521 20.4057 48.1005 15.4526L49.3978 14.7896Z" fill="white"/>
<path d="M36.5649 5.01657C36.7104 5.10294 36.8762 5.14936 37.0454 5.15111C37.2582 5.1526 37.4654 5.08342 37.6346 4.95443C37.8039 4.82544 37.9255 4.64394 37.9805 4.43838C38.0355 4.23282 38.0207 4.01482 37.9384 3.81859C37.8561 3.62236 37.7111 3.45897 37.5259 3.35407L36.709 2.91201C36.5971 2.84979 36.4739 2.81058 36.3464 2.79668C36.2191 2.78279 36.0903 2.7945 35.9675 2.83112C35.8448 2.86773 35.7306 2.92852 35.6316 3.00991C35.5328 3.09129 35.4512 3.19163 35.3915 3.30502C35.3319 3.41841 35.2957 3.54258 35.2847 3.67021C35.2739 3.79784 35.2886 3.92637 35.3281 4.04822C35.3675 4.17008 35.431 4.28282 35.5146 4.3798C35.5984 4.47678 35.7006 4.55606 35.8153 4.61296L36.5649 5.01657Z" fill="white"/>
<path d="M31.2111 2.78675C31.297 2.80074 31.3846 2.80074 31.4706 2.78675C31.5967 2.80315 31.725 2.79453 31.8478 2.7614C31.9707 2.72827 32.0859 2.67125 32.1866 2.59361C32.2875 2.51598 32.3721 2.41925 32.4355 2.30893C32.4989 2.19862 32.5401 2.07688 32.5564 1.95069C32.5729 1.82449 32.5642 1.69629 32.5312 1.57343C32.498 1.45055 32.441 1.33541 32.3634 1.23457C32.2857 1.13374 32.1889 1.04918 32.0787 0.985727C31.9684 0.922281 31.8466 0.881179 31.7204 0.864773L30.8556 0.643746C30.6007 0.585127 30.333 0.630154 30.1113 0.768923C29.8896 0.907692 29.7321 1.12883 29.6736 1.38371C29.6149 1.63857 29.6599 1.90629 29.7987 2.12796C29.9375 2.34963 30.1587 2.5071 30.4135 2.56572C30.6826 2.64259 30.9516 2.70986 31.2111 2.78675Z" fill="white"/>
<path d="M41.1372 8.5047C41.3176 8.67872 41.5591 8.77529 41.8098 8.77378C41.937 8.77325 42.0627 8.7475 42.1799 8.69801C42.297 8.64852 42.4031 8.57629 42.4921 8.48548C42.6711 8.30543 42.7716 8.06187 42.7716 7.80799C42.7716 7.55411 42.6711 7.31055 42.4921 7.13049L41.8386 6.51546C41.745 6.42965 41.6351 6.36327 41.5156 6.32016C41.3961 6.27707 41.2692 6.2581 41.1423 6.26435C41.0154 6.27061 40.891 6.30196 40.7763 6.35662C40.6616 6.41126 40.5589 6.48812 40.474 6.58273C40.3037 6.77153 40.2151 7.02015 40.2277 7.27413C40.2403 7.5281 40.3531 7.76672 40.5413 7.93772L41.1372 8.5047Z" fill="white"/>
<path d="M16.383 38.4685C16.6379 38.4685 16.8824 38.3673 17.0625 38.1871C17.2428 38.0069 17.3441 37.7624 17.3441 37.5075V33.6636C17.3441 33.4088 17.2428 33.1644 17.0625 32.9841C16.8824 32.8039 16.6379 32.7026 16.383 32.7026H12.5391C12.2843 32.7026 12.0399 32.8039 11.8596 32.9841C11.6794 33.1644 11.5781 33.4088 11.5781 33.6636C11.5781 33.9185 11.6794 34.1629 11.8596 34.3431C12.0399 34.5234 12.2843 34.6246 12.5391 34.6246H15.4221V36.5466H12.5391C12.2843 36.5466 12.0399 36.6478 11.8596 36.828C11.6794 37.0083 11.5781 37.2527 11.5781 37.5075V40.3905C11.5781 40.6454 11.6794 40.8898 11.8596 41.07C12.0399 41.2502 12.2843 41.3515 12.5391 41.3515H16.383C16.6379 41.3515 16.8824 41.2502 17.0625 41.07C17.2428 40.8898 17.3441 40.6454 17.3441 40.3905C17.3441 40.1356 17.2428 39.8912 17.0625 39.711C16.8824 39.5308 16.6379 39.4296 16.383 39.4296H13.5001V38.4685H16.383Z" fill="white"/>
<path d="M24.0705 41.3515C24.3254 41.3515 24.5699 41.2502 24.75 41.07C24.9302 40.8898 25.0315 40.6454 25.0315 40.3905V35.5856C25.0315 35.3307 24.9302 35.0863 24.75 34.9061C24.5699 34.7258 24.3254 34.6246 24.0705 34.6246C23.8156 34.6246 23.5712 34.7258 23.391 34.9061C23.2108 35.0863 23.1096 35.3307 23.1096 35.5856V36.5466H21.1875V33.6636C21.1875 33.4088 21.0863 33.1644 20.9061 32.9841C20.7259 32.8039 20.4815 32.7026 20.2266 32.7026C19.9717 32.7026 19.7273 32.8039 19.5471 32.9841C19.3669 33.1644 19.2656 33.4088 19.2656 33.6636V37.5075C19.2656 37.7624 19.3669 38.0069 19.5471 38.1871C19.7273 38.3673 19.9717 38.4685 20.2266 38.4685H23.1096V40.3905C23.1096 40.6454 23.2108 40.8898 23.391 41.07C23.5712 41.2502 23.8156 41.3515 24.0705 41.3515Z" fill="white"/>
<path d="M36.1878 41.2747C36.3063 41.3251 36.4338 41.3513 36.5625 41.3515C36.7512 41.3514 36.9356 41.2957 37.0928 41.1915C37.25 41.0873 37.3731 40.939 37.4467 40.7653L40.3297 34.0384C40.3915 33.8923 40.4162 33.7332 40.4017 33.5753C40.3871 33.4173 40.3337 33.2655 40.2461 33.1332C40.1586 33.001 40.0397 32.8924 39.9 32.8173C39.7602 32.7422 39.6042 32.7027 39.4455 32.7026H35.6016C35.3467 32.7026 35.1023 32.8039 34.9221 32.9841C34.7419 33.1644 34.6406 33.4088 34.6406 33.6636C34.6406 33.9185 34.7419 34.1629 34.9221 34.3431C35.1023 34.5234 35.3467 34.6246 35.6016 34.6246H37.9849L35.6785 40.0157C35.5793 40.2502 35.5772 40.5146 35.6726 40.7505C35.7682 40.9866 35.9534 41.175 36.1878 41.2747Z" fill="white"/>
<path d="M31.8419 29.4445L26.0759 42.8983C25.9767 43.1328 25.9747 43.397 26.0702 43.6331C26.1656 43.8692 26.3509 44.0576 26.5853 44.1571C26.7038 44.2077 26.8312 44.2338 26.9601 44.2341C27.1487 44.2339 27.333 44.1783 27.4903 44.074C27.6476 43.9697 27.7705 43.8216 27.8441 43.6479L33.6101 30.1941C33.698 29.9617 33.6928 29.7043 33.5952 29.476C33.4975 29.2475 33.3153 29.0657 33.0865 28.9688C32.8578 28.8718 32.6004 28.8672 32.3683 28.9559C32.1363 29.0445 31.9476 29.2197 31.8419 29.4445Z" fill="white"/>
</g>
<defs>
<clipPath id="clip0_28854_298">
<rect width="50" height="50" fill="white"/>
</clipPath>
</defs>
</svg>
