<svg width="52" height="43" viewBox="0 0 52 43" fill="none" xmlns="http://www.w3.org/2000/svg">
<g clip-path="url(#clip0_28854_314)">
<path d="M39.1155 20.7726C40.798 20.7726 42.3202 20.1261 43.522 18.9136C45.9255 16.4888 45.9255 12.4475 43.522 10.0226C42.3202 8.81018 40.798 8.16357 39.1155 8.16357C37.433 8.16357 35.9107 8.81018 34.7089 10.0226C32.3054 12.4475 32.3054 16.4888 34.7089 18.9136C35.8306 20.1261 37.433 20.7726 39.1155 20.7726ZM35.8306 11.235C36.7119 10.3459 37.8335 9.86093 39.1155 9.86093C40.3173 9.86093 41.5191 10.3459 42.4003 11.235C44.2431 13.094 44.2431 16.0038 42.4003 17.8629C41.5191 18.752 40.3173 19.2369 39.1155 19.2369C37.9137 19.2369 36.7119 18.752 35.8306 17.8629C33.9878 16.0038 33.9878 13.0133 35.8306 11.235Z" fill="white"/>
<path d="M1.6215 26.7538C3.46422 26.7538 4.34553 27.3196 5.30696 27.9663C6.3485 28.6129 7.55028 29.4212 9.87376 29.4212C12.1971 29.4212 13.3989 28.6129 14.4405 27.9663C15.482 27.3196 16.2832 26.7538 18.1259 26.7538C19.9687 26.7538 20.8499 27.3196 21.8114 27.9663C22.853 28.6129 24.0548 29.4212 26.3781 29.4212C28.7016 29.4212 29.9034 28.6129 30.9449 27.9663C31.9865 27.3196 32.7877 26.7538 34.6304 26.7538C36.4731 26.7538 37.3544 27.3196 38.3159 27.9663C39.3574 28.6129 40.5591 29.4212 42.8826 29.4212C45.2061 29.4212 46.4079 28.6129 47.4494 27.9663C48.4909 27.3196 49.2921 26.7538 51.1348 26.7538C51.6155 26.7538 51.9361 26.4306 51.9361 25.9456C51.9361 25.4607 51.6155 25.1373 51.1348 25.1373C48.8114 25.1373 47.6096 25.9456 46.568 26.5923C45.5265 27.2388 44.7254 27.8046 42.8826 27.8046C41.0399 27.8046 40.1586 27.2388 39.1972 26.5923C38.6363 26.2689 38.0755 25.8648 37.2744 25.6223C37.2744 25.5415 37.1942 25.4607 37.1141 25.3798L23.5741 11.6392L28.942 6.22371C30.3841 4.76882 30.3841 2.50565 28.942 1.05076C28.301 0.323309 27.3396 0 26.3781 0C25.4167 0 24.5355 0.404137 23.8144 1.05076L15.6423 9.53768C14.5206 10.6692 14.5206 12.4474 15.6423 13.579L20.6898 18.6711L11.9568 27.3196L11.8767 27.4005C11.3159 27.5622 10.755 27.7238 9.87376 27.7238C8.03099 27.7238 7.14969 27.158 6.18827 26.5114C5.14672 25.8648 3.94494 25.0565 1.6215 25.0565C1.14079 25.0565 0.820312 25.3798 0.820312 25.8648C0.820312 26.3497 1.14079 26.7538 1.6215 26.7538ZM22.3723 18.0245L16.7639 12.3666C16.5235 12.1241 16.4435 11.8008 16.4435 11.4775C16.4435 11.1542 16.6037 10.8309 16.7639 10.5884L25.0963 2.18234C25.4969 1.77821 25.9776 1.61654 26.5384 1.61654C27.0992 1.61654 27.5799 1.85903 27.9805 2.18234C28.7817 2.99062 28.7817 4.28385 27.9805 5.0113L22.0517 10.9925C21.7313 11.3158 21.7313 11.8008 22.0517 12.1241L34.8708 25.0565C34.8708 25.0565 34.8708 25.0565 34.7906 25.0565C32.4672 25.0565 31.2654 25.8648 30.2238 26.5114C29.1823 27.158 28.3812 27.7238 26.5384 27.7238C24.6956 27.7238 23.8144 27.158 22.853 26.5114C21.8114 25.8648 20.6096 25.0565 18.2862 25.0565C17.485 25.0565 16.8441 25.1373 16.2832 25.299L22.3723 19.1561C22.5324 18.9944 22.6126 18.8328 22.6126 18.5903C22.5324 18.3479 22.4524 18.1862 22.3723 18.0245Z" fill="white"/>
<path d="M1.6215 33.5434C3.46422 33.5434 4.34553 34.1092 5.30696 34.7557C6.3485 35.4024 7.55028 36.2107 9.87376 36.2107C12.1971 36.2107 13.3989 35.4024 14.4405 34.7557C15.482 34.1092 16.2832 33.5434 18.1259 33.5434C19.9687 33.5434 20.8499 34.1092 21.8114 34.7557C22.853 35.4024 24.0548 36.2107 26.3781 36.2107C28.7016 36.2107 29.9034 35.4024 30.9449 34.7557C31.9865 34.1092 32.7877 33.5434 34.6304 33.5434C36.4731 33.5434 37.3544 34.1092 38.3159 34.7557C39.3574 35.4024 40.5591 36.2107 42.8826 36.2107C45.2061 36.2107 46.4079 35.4024 47.4494 34.7557C48.4909 34.1092 49.2921 33.5434 51.1348 33.5434C51.6155 33.5434 51.9361 33.22 51.9361 32.7351C51.9361 32.2501 51.6155 31.9268 51.1348 31.9268C48.8114 31.9268 47.6096 32.7351 46.568 33.3817C45.5265 34.0283 44.7254 34.5941 42.8826 34.5941C41.0399 34.5941 40.1586 34.0283 39.1972 33.3817C38.1556 32.7351 36.9538 31.9268 34.6304 31.9268C32.307 31.9268 31.1052 32.7351 30.0637 33.3817C29.0221 34.0283 28.2209 34.5941 26.3781 34.5941C24.5355 34.5941 23.6541 34.0283 22.6927 33.3817C21.6512 32.7351 20.4494 31.9268 18.1259 31.9268C15.8025 31.9268 14.6007 32.7351 13.5592 33.3817C12.5177 34.0283 11.7164 34.5941 9.87376 34.5941C8.03099 34.5941 7.14969 34.0283 6.18827 33.3817C5.14672 32.7351 3.94494 31.9268 1.6215 31.9268C1.14079 31.9268 0.820312 32.2501 0.820312 32.7351C0.820312 33.22 1.14079 33.5434 1.6215 33.5434Z" fill="white"/>
<path d="M1.6215 40.3329C3.46422 40.3329 4.34553 40.8986 5.30696 41.5453C6.3485 42.1919 7.55028 43.0001 9.87376 43.0001C12.1971 43.0001 13.3989 42.1919 14.4405 41.5453C15.482 40.8986 16.2832 40.3329 18.1259 40.3329C19.9687 40.3329 20.8499 40.8986 21.8114 41.5453C22.853 42.1919 24.0548 43.0001 26.3781 43.0001C28.7016 43.0001 29.9034 42.1919 30.9449 41.5453C31.9865 40.8986 32.7877 40.3329 34.6304 40.3329C36.4731 40.3329 37.3544 40.8986 38.3159 41.5453C39.3574 42.1919 40.5591 43.0001 42.8826 43.0001C45.2061 43.0001 46.4079 42.1919 47.4494 41.5453C48.4909 40.8986 49.2921 40.3329 51.1348 40.3329C51.6155 40.3329 51.9361 40.0096 51.9361 39.5246C51.9361 39.0396 51.6155 38.7163 51.1348 38.7163C48.8114 38.7163 47.6096 39.5246 46.568 40.1712C45.5265 40.8178 44.7254 41.3836 42.8826 41.3836C41.0399 41.3836 40.1586 40.8178 39.1972 40.1712C38.1556 39.5246 36.9538 38.7163 34.6304 38.7163C32.307 38.7163 31.1052 39.5246 30.0637 40.1712C29.0221 40.8178 28.2209 41.3836 26.3781 41.3836C24.5355 41.3836 23.6541 40.8178 22.6927 40.1712C21.6512 39.5246 20.4494 38.7163 18.1259 38.7163C15.8025 38.7163 14.6007 39.5246 13.5592 40.1712C12.5177 40.8178 11.7164 41.3836 9.87376 41.3836C8.03099 41.3836 7.14969 40.8178 6.18827 40.1712C5.14672 39.5246 3.94494 38.7163 1.6215 38.7163C1.14079 38.7163 0.820312 39.0396 0.820312 39.5246C0.820312 40.0096 1.14079 40.3329 1.6215 40.3329Z" fill="white"/>
</g>
<defs>
<clipPath id="clip0_28854_314">
<rect width="52" height="43" fill="white"/>
</clipPath>
</defs>
</svg>
