<svg width="219" height="56" viewBox="0 0 219 56" fill="none" xmlns="http://www.w3.org/2000/svg">
<path d="M74.0703 11.8467H99.7933V19.3732H99.1857C98.9426 12.5635 91.246 12.4441 90.9624 12.4441H89.3826V35.541C89.3826 38.2091 90.8814 39.2843 92.5828 39.2843V39.8816H81.2403V39.2843C82.9417 39.2843 84.4405 38.2091 84.4405 35.541V12.4441H82.8607C82.2531 12.4441 74.921 12.5635 74.6779 19.3732H74.0703V11.8467ZM109.741 30.2845C105.406 31.2402 103.745 33.0322 103.745 35.2623C103.745 35.8198 104.11 38.1295 106.662 38.1295C108.404 38.1295 109.376 36.895 109.741 35.9392C109.741 35.8596 109.741 30.2845 109.741 30.2845ZM117.154 37.2534L117.761 37.4923C117.478 38.7268 115.858 40.24 113.508 40.24C113.508 40.24 110.146 40.2799 109.781 36.9348C109.214 38.7666 106.824 40.24 103.989 40.24C103.989 40.24 99.33 40.24 99.33 36.1782C99.33 31.9968 102.733 31.3597 109.741 29.6075V27.2182C109.741 23.1165 107.553 20.9263 104.515 22.3599C103.097 23.0767 102.895 23.7935 103.138 23.8333C103.705 23.9129 104.151 24.1519 104.515 24.6297C105.204 25.5456 104.961 26.82 104.029 27.4969C103.097 28.1341 101.761 27.935 101.112 27.0191C100.626 26.3421 100.586 25.466 100.95 24.8288C101.315 24.1917 101.923 23.0767 104.11 21.9218C105.892 21.0059 107.958 21.1254 107.958 21.1254C112.819 21.1254 114.116 24.3908 114.116 29.0898V35.4614C114.116 35.4614 114.116 38.0896 116.02 38.0896C116.02 38.0896 116.911 38.0896 117.154 37.2534ZM132.742 38.1693C132.742 38.1693 131.283 40.24 127.354 40.24C122.453 40.24 120.144 38.5277 120.144 38.5277V33.311H120.751C121.197 35.4216 122.331 39.6427 127.354 39.6427C130.919 39.6427 130.919 35.7401 127.84 33.749L123.749 31.3199C119.82 28.8509 118.848 26.0633 120.792 23.2758C120.792 23.2758 122.169 21.1254 126.261 21.1254C130.919 21.1254 132.904 22.3599 132.904 22.3599V27.0191H132.296C131.891 25.1474 130.676 21.7227 126.261 21.7227C123.02 21.7227 122.291 25.1076 125.815 27.2978L129.906 29.8066C133.552 32.0367 134.727 35.3817 132.742 38.1693ZM157.03 39.2843V39.8816H152.372C149.577 39.8816 149.05 39.1648 146.215 35.1826C145.283 33.8685 143.541 31.5986 143.541 31.5986L147.349 27.6164C147.349 27.6164 153.263 21.9616 147.916 22.0811V21.4838H157.395V22.0811C156.099 22.1209 152.858 22.3997 146.903 29.2093C151.4 35.4216 153.425 37.4923 153.425 37.4923C154.681 39.125 156.22 39.2445 157.03 39.2843ZM144.23 39.2843V39.8816H136.655V39.2843C138.194 38.8463 138.275 37.6516 138.275 35.6207V14.6344C138.275 13.2406 137.91 12.6432 136.249 12.2051V11.6078L142.569 10.3335V35.6207C142.569 37.8109 142.771 38.9259 144.23 39.2843ZM174.13 31.3199C174.13 25.028 172.348 22.5988 168.905 22.5988C166.069 22.5988 164.449 24.789 164.449 27.7359V33.2712C164.449 37.8507 166.839 39.6427 169.35 39.6427C172.186 39.6427 174.13 37.5321 174.13 31.3199ZM179.153 30.8818C179.153 37.1737 174.981 40.24 169.431 40.24C167.041 40.24 164.975 39.5232 163.638 38.2489C162.342 39.4038 160.195 40.3197 160.195 39.6825V14.5944C160.195 13.2406 159.79 12.6432 158.129 12.2051V11.6078L164.449 10.3335V24.3908C165.745 22.1209 168.58 21.1254 170.606 21.1254C175.588 21.1254 179.153 24.9881 179.153 30.8818ZM186.738 29.727H195.407C195.407 24.3112 193.26 21.7227 191.194 21.7227C188.845 21.7227 186.738 25.3067 186.738 29.727ZM198.405 34.8242L198.972 35.103C198.445 37.0543 196.096 40.24 190.992 40.24C185.847 40.24 182.202 35.78 182.202 30.8022C182.202 25.0678 186.05 21.1254 191.356 21.1254C196.663 21.1254 199.62 24.0722 199.62 30.3243H186.738C186.982 34.9437 189.21 37.0543 192.126 37.4923C194.476 37.8507 197.514 36.7357 198.405 34.8242ZM215.777 38.1693C215.777 38.1693 214.319 40.24 210.389 40.24C205.488 40.24 203.179 38.5277 203.179 38.5277V33.311H203.786C204.232 35.4216 205.366 39.6427 210.389 39.6427C213.954 39.6427 213.954 35.7401 210.875 33.749L206.784 31.3199C202.855 28.8509 201.882 26.0633 203.827 23.2758C203.827 23.2758 205.204 21.1254 209.295 21.1254C213.954 21.1254 215.939 22.3599 215.939 22.3599V27.0191H215.331C214.926 25.1474 213.711 21.7227 209.295 21.7227C206.055 21.7227 205.326 25.1076 208.85 27.2978L212.941 29.8066C216.587 32.0367 217.762 35.3817 215.777 38.1693Z" fill="white"/>
<path d="M16.8862 18.9414H1.17188V49.8375H32.6006V34.3894C23.9053 34.3894 16.8862 27.4894 16.8862 18.9414Z" fill="white"/>
<path d="M33.1792 0.0605469C22.8737 0.0605469 14.5547 8.23848 14.5547 18.3694H33.1792V36.6782C43.4847 36.6782 51.8036 28.5002 51.8036 18.3694C51.8036 8.27917 43.4847 0.0605469 33.1792 0.0605469Z" fill="white"/>
</svg>
