<svg width="181" height="56" viewBox="0 0 181 56" fill="none" xmlns="http://www.w3.org/2000/svg">
<path d="M82.44 12.4441H80.7388V25.3864H82.764C85.1132 25.3864 87.9889 24.5501 87.9889 18.5768C87.9889 12.6831 84.6272 12.4441 82.44 12.4441ZM94.8745 32.7535C94.8745 39.6826 89.3256 39.8817 82.3185 39.8817H73.3672V39.5233C75.1088 39.5233 75.7164 37.4924 75.7164 34.7845V16.9441C75.7164 14.4751 75.1493 12.1654 73.3672 12.1654V11.8468H82.3185C87.9485 11.8468 92.9709 11.8866 92.9709 18.6563C92.9709 24.7094 86.7738 25.5059 85.9638 25.5059C88.5965 25.5059 94.8745 25.9837 94.8745 32.7535ZM89.6496 32.5544C89.6496 26.1829 85.6397 25.9837 82.764 25.9837H80.7388V39.2844H82.44C86.1258 39.2844 89.6496 39.364 89.6496 32.5544ZM102.782 29.727H111.45C111.45 24.3112 109.303 21.7228 107.238 21.7228C104.888 21.7228 102.782 25.3068 102.782 29.727ZM114.447 34.8243L115.014 35.103C114.488 37.0543 112.139 40.2401 107.035 40.2401C101.891 40.2401 98.2458 35.78 98.2458 30.8022C98.2458 25.0678 102.094 21.1254 107.4 21.1254C112.706 21.1254 115.662 24.0723 115.662 30.3244H102.782C103.025 34.9437 105.253 37.0543 108.169 37.4924C110.518 37.8508 113.556 36.7357 114.447 34.8243ZM133.883 21.4838L123.959 39.2844C130.035 39.2844 132.06 36.4172 132.627 33.8287H133.235L132.87 39.8817H118.491L128.982 22.0812C123.554 22.0812 120.8 23.5546 120.03 26.7404H119.423L119.625 21.4838H133.883ZM140.372 17.86C139.036 17.86 137.983 16.8245 137.983 15.5105C137.983 14.1964 139.036 13.121 140.372 13.121C141.709 13.121 142.843 14.1964 142.843 15.5105C142.843 16.8245 141.709 17.86 140.372 17.86ZM144.585 39.2844V39.8817H137.051V39.2844C138.59 38.8065 138.671 37.6517 138.671 35.6207V25.6652C138.671 24.3112 138.266 23.7537 136.605 23.0767V22.4794L142.924 21.1254V35.6207C142.924 37.8109 143.126 38.8861 144.585 39.2844ZM160.532 14.4352C160.005 15.5105 158.709 15.9884 157.615 15.5105C156.481 14.9928 156.036 13.7583 156.522 12.6433C156.805 12.0857 157.251 11.7273 157.777 11.6079C158.263 11.5282 157.656 10.8114 156.319 10.8114C154.578 10.8114 153.524 12.9618 153.524 21.4838H157.98L157.858 22.0812H153.524V35.9393C153.524 38.0897 153.889 38.9658 155.347 39.2844V39.8817H147.651V39.2844C149.191 38.926 149.231 37.9304 149.231 35.9393V22.0812H146.639L146.598 21.4838H149.231C149.231 12.5635 151.499 10.2539 156.279 10.2539C158.304 10.2539 159.843 11.4088 160.248 12.0061C160.694 12.6433 160.856 13.6786 160.532 14.4352ZM172.051 21.4838H179.949V22.0413C178.815 22.0413 177.195 22.2803 174.724 28.3333L168.487 44.7798C167.515 47.2886 166.381 48.324 165.692 48.8417C165.044 49.3594 163.788 49.5983 162.938 49.2001C161.682 48.6426 161.156 47.209 161.682 45.9745C162.249 44.74 163.707 44.1825 164.963 44.74C165.611 45.0188 166.016 45.5763 166.178 46.1736C166.34 46.6913 167.272 46.2931 167.879 44.7002L169.58 40.1206C165.895 32.0367 161.966 23.8333 161.966 23.8333C161.237 22.1608 159.859 22.0812 159.252 22.0413V21.4838H168.203V22.0413C165.854 22.0413 167.069 24.7094 167.069 24.7094L171.727 34.5057L174.157 28.2138C174.157 28.2138 176.749 22.0015 172.051 22.0413V21.4838Z" fill="white"/>
<path d="M17.0019 20.1177C23.6296 17.0007 28.8167 11.7113 31.7944 5.09962C29.8732 3.1161 27.3758 1.69929 24.6862 0.84922L23.2455 0.376953C23.1494 0.56586 23.0533 0.849232 23.0533 1.03814C20.748 7.46096 16.0413 12.6558 9.70161 15.5839C5.28306 17.6619 2.01716 21.44 0.480278 25.9738L0 27.3906C0.192111 27.485 0.480282 27.5795 0.672394 27.5795C2.49745 28.2406 4.32251 29.0907 6.0515 30.1297C8.45289 25.8793 12.2951 22.2901 17.0019 20.1177Z" fill="white"/>
<path d="M44.8665 20.4971C41.3125 25.7865 36.4136 30.0369 30.3621 32.8705C25.4632 35.1373 21.7172 39.3877 19.9882 44.4882L19.5078 46.0939C21.3329 47.6996 23.5422 48.9275 25.9436 49.6832L27.3844 50.1554C27.4804 49.9665 27.5765 49.6832 27.5765 49.4942C29.8818 43.0714 34.5885 37.8765 40.9282 34.9484C45.3468 32.8705 48.7087 29.0923 50.1496 24.5586L50.6298 23.1418C48.6126 22.575 46.6915 21.6305 44.8665 20.4971Z" fill="white"/>
<path d="M15.6525 41.1841C18.054 35.5169 22.4725 30.8886 28.1397 28.244C33.3267 25.7882 37.6493 22.0101 40.627 17.3819C38.4178 15.3039 36.5927 12.9424 35.2479 10.1089C31.6938 16.5317 26.1227 21.7267 19.3026 24.9381C15.3644 26.7327 12.1946 29.8497 10.2734 33.6278C12.3867 35.6114 14.1157 38.067 15.4605 40.8062C15.4605 40.8062 15.5564 40.9952 15.6525 41.1841Z" fill="white"/>
</svg>
