<svg width="280" height="56" viewBox="0 0 280 56" fill="none" xmlns="http://www.w3.org/2000/svg">
<g clip-path="url(#clip0_28948_134)">
<path d="M37.4739 0.012207H18.8073C18.8073 10.31 10.4384 18.6788 0.140625 18.6788V37.3456C20.7673 37.3456 37.4739 20.6388 37.4739 0.012207Z" fill="white"/>
<path d="M56.1459 18.6772V37.344C45.848 37.344 37.4791 45.7128 37.4791 56.0106H18.8125C18.8125 35.384 35.5191 18.6772 56.1459 18.6772Z" fill="white"/>
<path d="M115.002 33.8796C115.002 37.2396 116.839 38.5388 118.765 38.5388V39.2108H106.266V38.5388C108.148 38.5388 109.492 37.2396 109.492 33.8796V9.59804L98.1574 39.614H97.4854L84.9414 12.4652V27.966C84.9414 30.5644 85.2998 38.5388 90.8998 38.5388V39.2108H77.7734V38.5388C83.8662 38.5388 84.2694 30.5196 84.2694 27.966V11.39C82.6118 8.43324 80.3718 8.43324 79.2518 8.34364V7.67164H89.3766L100.577 31.7292L109.492 7.67164H118.452V8.34364C116.525 8.34364 115.002 9.41884 115.002 12.286V33.8796ZM133.022 28.414C128.228 29.4892 126.391 31.5052 126.391 34.014C126.391 34.6412 126.794 37.2396 129.617 37.2396C131.543 37.2396 132.618 35.8508 133.022 34.7756C133.022 34.686 133.022 28.414 133.022 28.414ZM141.22 36.254L141.892 36.5228C141.578 37.9116 139.786 39.614 137.188 39.614C137.188 39.614 133.47 39.6588 133.066 35.8956C132.439 37.9564 129.796 39.614 126.66 39.614C126.66 39.614 121.508 39.614 121.508 35.0444C121.508 30.3404 125.271 29.6236 133.022 27.6524V24.9644C133.022 20.35 130.602 17.886 127.242 19.4988C125.674 20.3052 125.45 21.1116 125.719 21.1564C126.346 21.246 126.839 21.5148 127.242 22.0524C128.004 23.0828 127.735 24.5164 126.705 25.278C125.674 25.9948 124.196 25.7708 123.479 24.7404C122.942 23.9788 122.897 22.9932 123.3 22.2764C123.703 21.5596 124.375 20.3052 126.794 19.006C128.766 17.9756 131.05 18.11 131.05 18.11C136.426 18.11 137.86 21.7836 137.86 27.07V34.238C137.86 34.238 137.86 37.1948 139.966 37.1948C139.966 37.1948 140.951 37.1948 141.22 36.254ZM155.727 18.2892C156.623 18.0652 158.012 18.2444 158.818 19.006C159.938 20.126 159.938 21.9628 158.818 23.0828C157.698 24.2028 155.906 24.2476 154.696 23.1276C154.159 22.5452 153.89 21.8284 153.935 21.1564C154.024 20.5292 151.605 21.2908 150.082 24.1132V34.3724C150.082 36.8812 150.306 38.0908 151.919 38.5388V39.2108H143.496V38.5388C145.199 38.0012 145.288 36.702 145.288 34.3724V23.1724C145.288 21.6492 144.885 20.9772 143.048 20.3052V19.6332L150.082 18.11V22.9484C152.098 19.5884 154.293 18.6476 155.727 18.2892ZM183.658 38.5388V39.2108H178.506C175.415 39.2108 174.833 38.4044 171.697 33.9244C170.666 32.446 168.74 29.8924 168.74 29.8924L172.951 25.4124C172.951 25.4124 179.492 19.0508 173.578 19.1852V18.5132H184.061V19.1852C182.628 19.23 179.044 19.5436 172.458 27.2044C177.431 34.1932 179.671 36.5228 179.671 36.5228C181.06 38.3596 182.762 38.494 183.658 38.5388ZM169.501 38.5388V39.2108H161.124V38.5388C162.826 38.046 162.916 36.702 162.916 34.4172V10.8076C162.916 9.23964 162.513 8.56764 160.676 8.07484V7.40284L167.665 5.96924V34.4172C167.665 36.8812 167.889 38.1356 169.501 38.5388ZM189.083 27.7868H198.67C198.67 21.694 196.296 18.782 194.011 18.782C191.413 18.782 189.083 22.814 189.083 27.7868ZM201.986 33.5212L202.613 33.8348C202.03 36.03 199.432 39.614 193.787 39.614C188.098 39.614 184.066 34.5964 184.066 28.9964C184.066 22.5452 188.322 18.11 194.19 18.11C200.059 18.11 203.33 21.4252 203.33 28.4588H189.083C189.352 33.6556 191.816 36.03 195.042 36.5228C197.64 36.926 201 35.6716 201.986 33.5212ZM222.363 28.862C222.363 20.7532 220.839 18.782 217.479 18.782C214.164 18.782 212.596 20.7532 212.596 28.862C212.596 36.9708 214.164 38.942 217.479 38.942C220.839 38.942 222.363 36.9708 222.363 28.862ZM228.007 28.862C228.007 34.7308 224.334 39.614 217.479 39.614C210.67 39.614 206.996 34.7308 206.996 28.862C206.996 22.9484 210.67 18.11 217.479 18.11C224.334 18.11 228.007 22.9484 228.007 28.862ZM243.636 35.1788L244.218 35.5372C243.456 37.5532 241.082 39.614 238.26 39.614C234.9 39.614 232.839 38.1804 232.839 32.7596V19.1852H230.599L230.464 18.5132H232.839V12.3308L237.588 11.5692V18.5132H242.919L242.74 19.1852H237.588V32.6252C237.588 35.6716 238.752 36.926 240.948 36.926C242.247 36.926 243.277 35.9852 243.636 35.1788ZM250.13 14.4364C248.652 14.4364 247.487 13.2716 247.487 11.7932C247.487 10.3148 248.652 9.10524 250.13 9.10524C251.609 9.10524 252.863 10.3148 252.863 11.7932C252.863 13.2716 251.609 14.4364 250.13 14.4364ZM254.789 38.5388V39.2108H246.457V38.5388C248.159 38.0012 248.249 36.702 248.249 34.4172V23.2172C248.249 21.694 247.801 21.0668 245.964 20.3052V19.6332L252.953 18.11V34.4172C252.953 36.8812 253.177 38.0908 254.789 38.5388ZM276.369 33.4764L276.907 33.79C276.324 36.03 273.86 39.614 268.305 39.614C262.884 39.614 258.494 34.7308 258.494 28.8172C258.494 23.5308 262.481 18.11 269.739 18.11C273.547 18.11 275.159 19.7676 275.742 20.4396C276.279 21.1116 276.593 22.1868 276.19 23.038C275.697 24.2924 274.219 25.0092 272.919 24.5164C271.62 24.0236 271.038 22.5452 271.531 21.2908C271.755 20.6188 272.247 20.126 272.83 19.902C273.233 19.7676 272.113 18.782 269.739 18.782C268.036 18.782 263.422 20.1708 263.422 28.19C263.422 33.6108 266.379 35.8956 269.515 36.3884C272.292 36.7916 275.428 35.0892 276.369 33.4764Z" fill="white"/>
</g>
<defs>
<clipPath id="clip0_28948_134">
<rect width="280" height="56" fill="white"/>
</clipPath>
</defs>
</svg>
