<svg width="202" height="56" viewBox="0 0 202 56" fill="none" xmlns="http://www.w3.org/2000/svg">
<path d="M71.4219 11.1653H93.0231V18.6999H92.4094C91.3457 11.4911 82.1816 11.7762 80.586 11.7762H78.7859V25.0126H80.7906C81.3633 25.0126 86.7227 25.1348 87.2546 20.8992H87.8683V29.8592H87.2546C86.7227 25.5828 81.3633 25.705 80.7906 25.705H78.7859V34.5835C78.7859 38.9006 80.2997 39.2264 82.0998 39.2264V39.8373H71.4219V39.2264C73.1811 39.2264 73.7129 37.4344 73.7129 34.665V16.1341C73.7129 13.609 73.222 11.7762 71.4219 11.7762V11.1653ZM98.7197 17.3152C97.3697 17.3152 96.306 16.2562 96.306 14.9122C96.306 13.5682 97.3697 12.4686 98.7197 12.4686C100.07 12.4686 101.215 13.5682 101.215 14.9122C101.215 16.2562 100.07 17.3152 98.7197 17.3152ZM102.975 39.2264V39.8373H95.365V39.2264C96.9196 38.7377 97.0015 37.5566 97.0015 35.4795V25.2977C97.0015 23.913 96.5924 23.3428 94.915 22.6504V22.0395L101.297 20.6548V35.4795C101.297 37.7195 101.502 38.8192 102.975 39.2264ZM124.931 39.2264V39.8373H117.281V39.2264C118.836 38.7784 118.917 37.5566 118.917 35.4795V27.1304C118.917 24.7682 117.526 23.1392 115.154 23.1392C113.313 23.1392 111.472 25.0126 111.308 26.5602V35.5202C111.308 37.7602 111.553 38.8192 112.985 39.2264V39.8373H105.376V39.2264C106.93 38.7784 106.971 37.5973 106.971 35.5202V25.257C106.971 23.8315 106.603 23.3428 104.926 22.6504V22.0395L111.308 20.6548V24.9719C112.208 22.5282 115.276 20.6548 117.854 20.6548C121.086 20.6548 123.254 22.0802 123.254 27.0082V35.4795C123.254 37.7195 123.459 38.8599 124.931 39.2264ZM138.455 36.1719L138.987 36.4977C138.292 38.3304 136.123 40.2039 133.546 40.2039C130.477 40.2039 128.596 38.9006 128.596 33.9726V21.6322H126.55L126.427 21.0213H128.596V15.401L132.932 14.7086V21.0213H137.801L137.637 21.6322H132.932V33.8504C132.932 36.6199 133.996 37.7602 136.001 37.7602C137.187 37.7602 138.128 36.905 138.455 36.1719ZM145.491 29.4519H154.246C154.246 23.913 152.077 21.2657 149.991 21.2657C147.618 21.2657 145.491 24.9312 145.491 29.4519ZM157.273 34.665L157.846 34.9501C157.314 36.9457 154.941 40.2039 149.786 40.2039C144.591 40.2039 140.909 35.6424 140.909 30.5515C140.909 24.6868 144.795 20.6548 150.155 20.6548C155.514 20.6548 158.5 23.6686 158.5 30.0628H145.491C145.736 34.7872 147.986 36.9457 150.932 37.3937C153.305 37.7602 156.373 36.6199 157.273 34.665ZM178.335 34.6242L178.826 34.9093C178.294 36.9457 176.044 40.2039 170.971 40.2039C166.021 40.2039 162.011 35.7646 162.011 30.3886C162.011 25.5828 165.652 20.6548 172.28 20.6548C175.757 20.6548 177.23 22.1617 177.762 22.7726C178.253 23.3835 178.539 24.361 178.171 25.1348C177.721 26.2752 176.371 26.9268 175.185 26.4788C173.998 26.0308 173.466 24.6868 173.916 23.5464C174.121 22.9355 174.571 22.4875 175.103 22.2839C175.471 22.1617 174.448 21.2657 172.28 21.2657C170.725 21.2657 166.511 22.5282 166.511 29.8184C166.511 34.7464 169.212 36.8235 172.075 37.2715C174.612 37.6381 177.476 36.0904 178.335 34.6242ZM200.945 39.2264V39.8373H196.24C193.417 39.8373 192.885 39.1042 190.021 35.0315C189.08 33.6875 187.321 31.3661 187.321 31.3661L191.167 27.2933C191.167 27.2933 197.14 21.5101 191.74 21.6322V21.0213H201.313V21.6322C200.004 21.673 196.731 21.9581 190.717 28.9224C195.258 35.2759 197.304 37.3937 197.304 37.3937C198.572 39.0635 200.127 39.1857 200.945 39.2264ZM188.017 39.2264V39.8373H180.366V39.2264C181.921 38.7784 182.003 37.5566 182.003 35.4795V14.0162C182.003 12.5908 181.635 11.9799 179.957 11.5319V10.9209L186.339 9.61768V35.4795C186.339 37.7195 186.544 38.8599 188.017 39.2264Z" fill="white"/>
<mask id="mask0_28948_138" style="mask-type:luminance" maskUnits="userSpaceOnUse" x="0" y="0" width="52" height="52">
<path d="M51.1392 0.382812H0V51.2919H51.1392V0.382812Z" fill="white"/>
</mask>
<g mask="url(#mask0_28948_138)">
<path d="M36.6762 25.9644C37.5436 25.6922 38.4742 25.7185 39.3257 26.0392C39.6471 26.174 39.9685 26.3287 40.2998 26.4984C40.6309 26.6681 40.9086 26.8577 41.2105 27.0624C41.8099 27.4847 42.3635 27.9716 42.8616 28.5148C43.9677 29.7091 44.7998 31.1415 45.2968 32.7073C45.8548 34.498 46.0357 36.3897 45.8277 38.2574C45.5861 40.3648 44.9354 42.4013 43.9136 44.2467C43.2744 45.3939 42.2829 46.2924 41.0937 46.8021C40.8216 46.913 40.5415 47.0014 40.2559 47.0667C39.9872 47.1272 39.7129 47.159 39.4377 47.1615C38.9317 47.1763 38.4298 47.0632 37.9766 46.832C37.6014 46.623 37.2864 46.3166 37.0633 45.9433C36.8402 45.5701 36.7167 45.1434 36.7054 44.7059C36.6828 43.746 36.9629 42.8044 37.5041 42.0206C38.1997 40.9706 38.6954 39.7955 38.9653 38.5569C39.2092 37.4081 39.2357 36.2221 39.0431 35.0631C38.9994 34.7886 38.9311 34.5091 38.863 34.2445C38.824 34.1148 38.7899 33.985 38.751 33.8553C38.712 33.7255 38.6584 33.5957 38.6097 33.466C38.5123 33.2114 38.41 32.9668 38.298 32.7273C38.186 32.4878 38.0496 32.2582 37.9132 32.0335C37.3792 31.1576 36.6981 30.3855 35.9018 29.7525C35.3618 29.3575 34.9414 28.8143 34.689 28.1854C34.6045 27.9498 34.5943 27.693 34.6599 27.4513C34.7253 27.2095 34.8634 26.9949 35.0543 26.8377C35.2642 26.634 35.5042 26.4655 35.7654 26.3387C36.0555 26.1816 36.3606 26.0562 36.6762 25.9644Z" fill="white"/>
<path d="M31.0273 35.6108C31.694 36.2436 32.1389 37.0837 32.2936 38.0015C32.3424 38.3572 32.3716 38.7155 32.3812 39.0745C32.3812 39.4339 32.3812 39.8033 32.3812 40.1675C32.3812 40.5319 32.3082 40.9012 32.2449 41.2706C32.1796 41.6448 32.0934 42.0146 31.9868 42.3786C31.5253 43.9505 30.7265 45.3965 29.649 46.6111C28.4152 47.9972 26.91 49.101 25.2314 49.8503C23.3284 50.7057 21.2751 51.1541 19.197 51.168C17.9109 51.1713 16.6594 50.7397 15.6368 49.9402C15.1982 49.6245 14.8307 49.2162 14.5595 48.7426C14.288 48.2691 14.119 47.7413 14.0637 47.195C14.0504 46.7569 14.1517 46.3231 14.3573 45.9387C14.5629 45.5542 14.865 45.2332 15.2326 45.009C15.6083 44.7703 16.0222 44.6013 16.4551 44.5098C16.9341 44.3997 17.4264 44.3627 17.9161 44.4C19.1479 44.4849 20.3842 44.3291 21.5593 43.9408C22.1134 43.7574 22.6498 43.5218 23.1616 43.2371C23.4149 43.0874 23.6486 42.9326 23.8872 42.7729C24.1179 42.6208 24.3392 42.4541 24.5496 42.2738C24.9639 41.9193 25.3438 41.5249 25.6844 41.096C25.8501 40.8862 26.0059 40.6617 26.1715 40.442C26.3151 40.2234 26.4468 39.9968 26.5661 39.7633C27.023 38.8413 27.3196 37.8449 27.4427 36.8186C27.4894 36.4398 27.5844 36.069 27.7251 35.7155C27.7806 35.5664 27.849 35.4228 27.9297 35.2864C27.9619 35.2248 27.9994 35.1663 28.0417 35.1116C28.0807 35.0517 28.1245 34.9968 28.1635 34.9469C28.3231 34.7587 28.5353 34.6252 28.7713 34.5645C29.0074 34.5038 29.256 34.5188 29.4834 34.6075C29.6156 34.6478 29.7444 34.6996 29.8681 34.7622C30.0025 34.8286 30.1326 34.9036 30.2578 34.9869C30.5347 35.167 30.7926 35.376 31.0273 35.6108Z" fill="white"/>
<path d="M20.0664 35.4285C19.8601 36.3351 19.3711 37.1481 18.6735 37.7443C17.5312 38.6487 16.2149 39.2952 14.8112 39.641C13.2522 40.0121 11.6323 40.0257 10.0675 39.6808C8.2756 39.2843 6.58587 38.5035 5.10945 37.3899C3.43114 36.1243 2.02246 34.521 0.969604 32.6784C0.32506 31.5381 0.0681014 30.2111 0.239043 28.9051C0.239043 28.7553 0.282877 28.6057 0.312099 28.4608C0.341321 28.3161 0.390025 28.1714 0.433859 28.0317C0.519016 27.7655 0.628264 27.5082 0.760176 27.2631C1.00373 26.8142 1.34962 26.4322 1.76835 26.1501C2.13179 25.9174 2.54955 25.789 2.97795 25.7785C3.40635 25.768 3.82964 25.8755 4.20356 26.0901C4.59958 26.2954 4.9547 26.5748 5.25068 26.9137C5.41545 27.0882 5.56536 27.2769 5.69877 27.4776C5.83386 27.6901 5.95744 27.9101 6.06891 28.1364C6.60922 29.2696 7.35651 30.2863 8.27034 31.1311C9.12346 31.9207 10.1151 32.5372 11.1926 32.9478C11.7018 33.1338 12.2268 33.2708 12.7609 33.3571C13.2759 33.4424 13.7979 33.4757 14.3194 33.4569C14.8257 33.4379 15.3293 33.3728 15.8243 33.2623C16.3108 33.1574 16.788 33.0122 17.2513 32.8281C17.5968 32.6832 17.9582 32.5827 18.3277 32.5286C18.489 32.5057 18.6519 32.4956 18.8148 32.4987C18.949 32.5002 19.0828 32.5152 19.2142 32.5436C19.4579 32.585 19.6828 32.7035 19.8575 32.8825C20.0322 33.0615 20.1479 33.2921 20.1883 33.5418C20.2957 34.1715 20.2539 34.8186 20.0664 35.4285Z" fill="white"/>
<path d="M14.7332 25.5882C13.8647 25.8653 12.9312 25.8389 12.0789 25.5134C11.7574 25.3786 11.4408 25.2238 11.1048 25.0542C10.8002 24.8817 10.5043 24.6935 10.2184 24.4902C9.60983 24.0682 9.0466 23.5814 8.53808 23.0378C7.43988 21.8436 6.61615 20.4128 6.12723 18.8503C5.56548 17.0586 5.38284 15.1648 5.59149 13.2952C5.83384 11.188 6.4846 9.15173 7.50555 7.30588C8.14438 6.16861 9.12999 5.27781 10.3109 4.77041C10.5841 4.65956 10.866 4.57273 11.1535 4.51088C11.4198 4.44517 11.6929 4.41331 11.9668 4.41605C12.473 4.4 12.9752 4.5132 13.428 4.74546C13.8044 4.95159 14.1198 5.25779 14.3408 5.63192C14.562 6.00604 14.6807 6.43429 14.6845 6.87166C14.7078 7.83002 14.4275 8.77035 13.8858 9.55187C13.2006 10.6023 12.7148 11.7758 12.4539 13.0107C12.2099 14.1594 12.1835 15.3454 12.376 16.5045C12.4247 16.784 12.488 17.0585 12.561 17.323C12.5951 17.4578 12.6341 17.5875 12.6731 17.7173C12.712 17.8471 12.7607 17.9768 12.8095 18.1016C12.9069 18.3562 13.0092 18.6007 13.126 18.8403C13.241 19.0781 13.3678 19.3096 13.5059 19.5341C14.04 20.4099 14.7209 21.182 15.5174 21.815C16.0594 22.2113 16.4814 22.7561 16.7349 23.3872C16.8183 23.6232 16.8272 23.8802 16.7609 24.1218C16.6945 24.3635 16.5561 24.5778 16.3648 24.7347C16.1539 24.9371 15.9141 25.1055 15.6537 25.2339C15.3606 25.3862 15.0518 25.5051 14.7332 25.5882Z" fill="white"/>
<path d="M20.3841 15.945C19.7203 15.3099 19.2759 14.4708 19.1179 13.5543C19.0692 13.1949 19.0448 12.8455 19.0302 12.4812C19.0108 12.1155 19.0108 11.7489 19.0302 11.3832C19.0573 11.0134 19.1028 10.6452 19.1666 10.2801C19.2296 9.90765 19.3142 9.53932 19.4199 9.17711C19.8861 7.60485 20.6862 6.1578 21.7624 4.93967C22.9948 3.55399 24.4983 2.45023 26.1751 1.70047C28.0858 0.842352 30.1477 0.393941 32.2338 0.382812C33.5187 0.383831 34.7678 0.816922 35.7893 1.61561C36.2305 1.93185 36.5996 2.34235 36.8713 2.81884C37.1428 3.29531 37.3104 3.82645 37.3623 4.37569C37.3776 4.81426 37.2776 5.24896 37.0728 5.63438C36.8681 6.01981 36.5661 6.34181 36.1984 6.56678C35.8199 6.79957 35.407 6.96812 34.9759 7.06588C34.4965 7.17374 34.0042 7.20906 33.5148 7.1707C32.2846 7.088 31.0503 7.24378 29.8766 7.62987C29.3203 7.8138 28.7822 8.05108 28.2694 8.3386C28.021 8.48335 27.7823 8.63808 27.5486 8.79779C27.3148 8.95751 27.0956 9.14218 26.8862 9.29689C26.4708 9.65007 26.0906 10.0446 25.7513 10.4748C25.4225 10.8921 25.1323 11.3399 24.8844 11.8124C24.4111 12.7242 24.098 13.7143 23.959 14.7372C23.9131 15.1199 23.8216 15.4953 23.6863 15.8551C23.6325 16.0042 23.5656 16.1477 23.4866 16.2844C23.4476 16.3493 23.4087 16.4042 23.3697 16.4592C23.3319 16.5145 23.2912 16.5677 23.2479 16.6188C23.0901 16.8081 22.8791 16.9428 22.6437 17.0044C22.4083 17.0661 22.16 17.0517 21.933 16.9632C21.8003 16.9221 21.6714 16.8686 21.5482 16.8034C21.4143 16.738 21.2842 16.6647 21.1586 16.5839C20.8817 16.396 20.6224 16.1821 20.3841 15.945Z" fill="white"/>
<path d="M31.3397 16.1295C31.5448 15.2236 32.032 14.4107 32.7278 13.8136C33.8716 12.9086 35.1896 12.2621 36.5949 11.917C38.1534 11.5415 39.7738 11.5262 41.3387 11.8721C43.1307 12.2686 44.8204 13.0494 46.2968 14.163C47.9691 15.433 49.3725 17.0376 50.422 18.8796C51.0679 20.0174 51.3266 21.343 51.1575 22.6479C51.1575 22.8025 51.1088 22.9523 51.0795 23.097C51.0503 23.2417 51.0065 23.3866 50.9626 23.5212C50.8739 23.7884 50.7631 24.0471 50.6315 24.2949C50.3894 24.7436 50.043 25.1241 49.6233 25.403C49.2603 25.6364 48.8428 25.7656 48.4144 25.7769C47.9859 25.7883 47.5624 25.6816 47.188 25.4677C46.7941 25.259 46.4396 24.9803 46.141 24.6443C45.9789 24.4669 45.8307 24.2766 45.6977 24.0752C45.5611 23.863 45.4358 23.643 45.3227 23.4165C44.7828 22.283 44.0354 21.2663 43.1213 20.4218C42.2702 19.6305 41.278 19.0153 40.1991 18.61C39.1979 18.2386 38.1361 18.0691 37.0722 18.111C36.5643 18.1296 36.059 18.1947 35.5624 18.3056C35.0758 18.4159 34.5986 18.5661 34.1354 18.7547C33.7902 18.9002 33.4287 19.0009 33.059 19.0542C32.8976 19.0764 32.7349 19.0879 32.5719 19.0892C32.4363 19.0851 32.3012 19.0701 32.1677 19.0443C31.9243 19.0022 31.6998 18.8834 31.5251 18.7046C31.3506 18.5256 31.2348 18.2955 31.1936 18.0461C31.0893 17.4045 31.1395 16.7466 31.3397 16.1295Z" fill="white"/>
</g>
</svg>
