<svg width="32" height="32" viewBox="0 0 32 32" fill="none" xmlns="http://www.w3.org/2000/svg">
<path d="M5.53912 13.9659V18.1795L13.6227 26.1613L19.4536 31.9189H0V26.1613H5.84449L5.53912 25.8597L0 20.3903V0.321777L5.40543 5.65902L5.5391 5.79113L6.99394 7.22748L12.7528 12.9139L16.5473 16.6607L22.3059 22.3467L26.1691 26.1613L32 31.9189H23.7211L17.89 26.1613L14.4803 22.7944C14.4801 22.7944 14.4801 22.7942 14.4801 22.7942L6.64541 15.0584L6.64518 15.0582L5.53912 13.9659Z" fill="#004040"/>
<path d="M29.4014 11.6304C29.4014 15.3758 27.6316 18.7078 24.8827 20.8356L20.2709 16.282C22.1237 15.3694 23.3985 13.4618 23.3985 11.2572C23.3985 8.16543 20.8923 5.65907 17.8005 5.65907H9.51253L8.47138 4.63108L5.53813 1.73459L3.78125 0H18.089C22.1968 0.111873 25.7731 2.35269 27.7539 5.65907C28.8002 7.40457 29.4014 9.4472 29.4014 11.6304Z" fill="#C29D68"/>
</svg>
