<svg width="178" height="36" viewBox="0 0 178 36" fill="none" xmlns="http://www.w3.org/2000/svg">
<path d="M6.23151 15.7514V20.5038L15.3255 29.506L21.8853 35.9998H0V29.506H6.57505L6.23151 29.1659L0 22.9972V0.362793L6.08111 6.38244L6.23149 6.53145L7.86818 8.15144L14.3469 14.5649L18.6157 18.7907L25.0941 25.2037L29.4402 29.506L36 35.9998H26.6863L20.1262 29.506L16.2904 25.7087C16.2901 25.7087 16.2901 25.7084 16.2901 25.7084L7.47609 16.9836L7.47583 16.9834L6.23151 15.7514Z" fill="white"/>
<path d="M33.0727 13.1174C33.0727 17.3418 31.0817 21.0997 27.9892 23.4996L22.8009 18.3637C24.8852 17.3345 26.3195 15.1829 26.3195 12.6965C26.3195 9.20944 23.5 6.38262 20.0217 6.38262H10.6977L9.5264 5.2232L6.22649 1.95637L4.25 0H20.3462C24.9675 0.126176 28.9908 2.6535 31.2193 6.38262C32.3963 8.35129 33.0727 10.6551 33.0727 13.1174Z" fill="#C29D68"/>
<path d="M56.68 16.88C58.4667 16.88 60.04 17.1733 61.4 17.76C62.7867 18.3467 63.8533 19.16 64.6 20.2C65.3467 21.24 65.72 22.4267 65.72 23.76C65.72 25.1467 65.32 26.4 64.52 27.52C63.72 28.64 62.6133 29.5333 61.2 30.2C59.7867 30.84 58.2133 31.16 56.48 31.16C55.7333 31.16 54.88 31.12 53.92 31.04C53.5467 31.0133 53.08 30.9867 52.52 30.96C51.9867 30.9333 51.3867 30.92 50.72 30.92L47.8 30.96C47.2667 30.9867 46.5467 31 45.64 31C45.56 31 45.52 30.92 45.52 30.76C45.52 30.6 45.56 30.52 45.64 30.52C46.4133 30.52 47 30.4533 47.4 30.32C47.8 30.16 48.08 29.8933 48.24 29.52C48.4267 29.12 48.52 28.5333 48.52 27.76V9.24C48.52 8.12 48.3333 7.38667 47.96 7.04C47.5867 6.66667 46.8267 6.48 45.68 6.48C45.6267 6.48 45.6 6.4 45.6 6.24C45.6 6.08 45.6267 6 45.68 6L47.8 6.04C49.0267 6.09333 50 6.12 50.72 6.12C51.4667 6.12 52.24 6.08 53.04 6C53.3067 5.97333 53.7067 5.94666 54.24 5.92C54.7733 5.89333 55.24 5.88 55.64 5.88C58.0667 5.88 59.9467 6.32 61.28 7.2C62.6133 8.08 63.28 9.36 63.28 11.04C63.28 12.5867 62.6667 13.96 61.44 15.16C60.24 16.3333 58.5067 17.1467 56.24 17.6L56.68 16.88ZM55.04 6.76C54.2667 6.76 53.7333 6.94667 53.44 7.32C53.1467 7.66667 53 8.33333 53 9.32V17.16L51.52 16.88C52.6933 16.9333 53.72 16.96 54.6 16.96C55.9867 16.96 57.0533 16.44 57.8 15.4C58.5467 14.36 58.92 13.0267 58.92 11.4C58.92 9.88 58.5867 8.73333 57.92 7.96C57.2533 7.16 56.2933 6.76 55.04 6.76ZM55.8 30.16C59.2933 30.16 61.04 28.3467 61.04 24.72C61.04 22.6667 60.5467 21.04 59.56 19.84C58.5733 18.64 57.08 18.04 55.08 18.04C53.7733 18.04 52.64 18.12 51.68 18.28L53 17.8V27.76C53 28.64 53.1733 29.2667 53.52 29.64C53.8667 29.9867 54.6267 30.16 55.8 30.16ZM77.2691 31.52C75.6157 31.52 74.1624 31.1467 72.9091 30.4C71.6824 29.6267 70.7357 28.6 70.0691 27.32C69.4024 26.0133 69.0691 24.6 69.0691 23.08C69.0691 21.3467 69.5091 19.88 70.3891 18.68C71.2691 17.4533 72.3891 16.5467 73.7491 15.96C75.1091 15.3467 76.5091 15.04 77.9491 15.04C79.6024 15.04 81.0424 15.4267 82.2691 16.2C83.4957 16.9733 84.4291 18 85.0691 19.28C85.7357 20.5333 86.0691 21.88 86.0691 23.32C86.0691 24.92 85.6691 26.3467 84.8691 27.6C84.0691 28.8267 82.9891 29.7867 81.6291 30.48C80.2957 31.1733 78.8424 31.52 77.2691 31.52ZM78.4691 30.68C79.5091 30.68 80.2957 30.1733 80.8291 29.16C81.3891 28.12 81.6691 26.64 81.6691 24.72C81.6691 22.8533 81.4291 21.2533 80.9491 19.92C80.4691 18.5867 79.8424 17.5867 79.0691 16.92C78.2957 16.2267 77.4691 15.88 76.5891 15.88C74.4557 15.88 73.3891 17.7867 73.3891 21.6C73.3891 23.3867 73.6157 24.9733 74.0691 26.36C74.5224 27.72 75.1357 28.7867 75.9091 29.56C76.6824 30.3067 77.5357 30.68 78.4691 30.68ZM96.8394 31.52C95.186 31.52 93.7327 31.1467 92.4794 30.4C91.2527 29.6267 90.306 28.6 89.6394 27.32C88.9727 26.0133 88.6394 24.6 88.6394 23.08C88.6394 21.3467 89.0794 19.88 89.9594 18.68C90.8394 17.4533 91.9594 16.5467 93.3194 15.96C94.6794 15.3467 96.0794 15.04 97.5194 15.04C99.1727 15.04 100.613 15.4267 101.839 16.2C103.066 16.9733 103.999 18 104.639 19.28C105.306 20.5333 105.639 21.88 105.639 23.32C105.639 24.92 105.239 26.3467 104.439 27.6C103.639 28.8267 102.559 29.7867 101.199 30.48C99.866 31.1733 98.4127 31.52 96.8394 31.52ZM98.0394 30.68C99.0794 30.68 99.866 30.1733 100.399 29.16C100.959 28.12 101.239 26.64 101.239 24.72C101.239 22.8533 100.999 21.2533 100.519 19.92C100.039 18.5867 99.4127 17.5867 98.6394 16.92C97.866 16.2267 97.0394 15.88 96.1594 15.88C94.026 15.88 92.9594 17.7867 92.9594 21.6C92.9594 23.3867 93.186 24.9733 93.6394 26.36C94.0927 27.72 94.706 28.7867 95.4794 29.56C96.2527 30.3067 97.106 30.68 98.0394 30.68ZM107.77 31C107.716 31 107.69 30.92 107.69 30.76C107.69 30.6 107.716 30.52 107.77 30.52C108.596 30.52 109.156 30.3333 109.45 29.96C109.77 29.56 109.93 28.8267 109.93 27.76V7.44C109.93 6.50667 109.836 5.84 109.65 5.44C109.49 5.04 109.196 4.84 108.77 4.84C108.396 4.84 107.89 4.98667 107.25 5.28H107.21C107.13 5.28 107.05 5.21333 106.97 5.08C106.916 4.92 106.916 4.82667 106.97 4.8L112.81 2.04L113.01 2C113.143 2 113.276 2.06667 113.41 2.2C113.57 2.30667 113.65 2.41333 113.65 2.52V27.76C113.65 28.8267 113.796 29.56 114.09 29.96C114.41 30.3333 114.983 30.52 115.81 30.52C115.916 30.52 115.97 30.6 115.97 30.76C115.97 30.92 115.916 31 115.81 31C115.116 31 114.556 30.9867 114.13 30.96L111.81 30.92L109.41 30.96C109.01 30.9867 108.463 31 107.77 31ZM117.85 31C117.77 31 117.73 30.92 117.73 30.76C117.73 30.6 117.77 30.52 117.85 30.52C118.81 30.52 119.29 30.24 119.29 29.68C119.29 29.3867 119.183 29.12 118.97 28.88L114.13 22.68L116.85 20.6L122.45 27.76C123.223 28.72 123.956 29.4267 124.65 29.88C125.37 30.3067 126.09 30.52 126.81 30.52C126.89 30.52 126.93 30.6 126.93 30.76C126.93 30.92 126.89 31 126.81 31C126.116 31 125.57 30.9867 125.17 30.96L122.77 30.92L119.69 30.96C119.236 30.9867 118.623 31 117.85 31ZM111.97 24.4L117.37 19.2C118.063 18.56 118.41 17.9067 118.41 17.24C118.41 16.8933 118.276 16.6133 118.01 16.4C117.743 16.16 117.37 16.04 116.89 16.04C116.836 16.04 116.81 15.96 116.81 15.8C116.81 15.64 116.836 15.56 116.89 15.56C117.663 15.56 118.263 15.5733 118.69 15.6L121.85 15.64L124.77 15.6C125.143 15.5733 125.663 15.56 126.33 15.56C126.41 15.56 126.45 15.64 126.45 15.8C126.45 15.96 126.41 16.04 126.33 16.04C125.183 16.04 123.863 16.3333 122.37 16.92C120.903 17.48 119.583 18.3067 118.41 19.4L112.21 25.04L111.97 24.4ZM135.355 31.52C133.702 31.52 132.248 31.1467 130.995 30.4C129.768 29.6267 128.822 28.6 128.155 27.32C127.488 26.0133 127.155 24.6 127.155 23.08C127.155 21.3467 127.595 19.88 128.475 18.68C129.355 17.4533 130.475 16.5467 131.835 15.96C133.195 15.3467 134.595 15.04 136.035 15.04C137.688 15.04 139.128 15.4267 140.355 16.2C141.582 16.9733 142.515 18 143.155 19.28C143.822 20.5333 144.155 21.88 144.155 23.32C144.155 24.92 143.755 26.3467 142.955 27.6C142.155 28.8267 141.075 29.7867 139.715 30.48C138.382 31.1733 136.928 31.52 135.355 31.52ZM136.555 30.68C137.595 30.68 138.382 30.1733 138.915 29.16C139.475 28.12 139.755 26.64 139.755 24.72C139.755 22.8533 139.515 21.2533 139.035 19.92C138.555 18.5867 137.928 17.5867 137.155 16.92C136.382 16.2267 135.555 15.88 134.675 15.88C132.542 15.88 131.475 17.7867 131.475 21.6C131.475 23.3867 131.702 24.9733 132.155 26.36C132.608 27.72 133.222 28.7867 133.995 29.56C134.768 30.3067 135.622 30.68 136.555 30.68ZM151.565 19.64C153.032 17.96 154.205 16.8 155.085 16.16C155.992 15.4933 156.765 15.16 157.405 15.16C158.019 15.16 158.605 15.3867 159.165 15.84C159.752 16.2667 160.045 16.7867 160.045 17.4C160.045 17.96 159.872 18.4267 159.525 18.8C159.179 19.1467 158.725 19.32 158.165 19.32C157.765 19.32 157.432 19.24 157.165 19.08C156.925 18.92 156.672 18.68 156.405 18.36C156.165 18.0933 155.952 17.9067 155.765 17.8C155.605 17.6667 155.405 17.6 155.165 17.6C154.872 17.6 154.499 17.76 154.045 18.08C153.619 18.4 152.899 19.0933 151.885 20.16L151.565 19.64ZM147.005 31C146.925 31 146.885 30.92 146.885 30.76C146.885 30.6 146.925 30.52 147.005 30.52C147.832 30.52 148.392 30.3333 148.685 29.96C148.979 29.56 149.125 28.8267 149.125 27.76V20.24C149.125 19.4133 149.019 18.8133 148.805 18.44C148.619 18.04 148.312 17.84 147.885 17.84C147.432 17.84 146.792 18.0267 145.965 18.4H145.885C145.805 18.4 145.739 18.3333 145.685 18.2C145.659 18.0667 145.672 17.9867 145.725 17.96L151.285 15.24C151.445 15.1867 151.539 15.16 151.565 15.16C151.885 15.16 152.179 15.5067 152.445 16.2C152.739 16.8667 152.885 17.76 152.885 18.88V27.76C152.885 28.8267 153.139 29.56 153.645 29.96C154.152 30.3333 155.085 30.52 156.445 30.52C156.552 30.52 156.605 30.6 156.605 30.76C156.605 30.92 156.552 31 156.445 31C155.512 31 154.779 30.9867 154.245 30.96L151.005 30.92L148.645 30.96C148.245 30.9867 147.699 31 147.005 31ZM172.893 31.24C172.786 31.2933 172.653 31.32 172.493 31.32C171.959 31.32 171.466 30.9867 171.013 30.32C170.559 29.6267 170.333 28.72 170.333 27.6V20.8C170.333 19.0933 170.186 17.8533 169.893 17.08C169.626 16.3067 169.159 15.92 168.493 15.92C167.079 15.92 166.279 17.0133 166.093 19.2C166.013 20 165.773 20.5733 165.373 20.92C164.999 21.2667 164.466 21.44 163.773 21.44C163.106 21.44 162.613 21.3067 162.293 21.04C161.999 20.7467 161.853 20.3733 161.853 19.92C161.853 19.12 162.319 18.36 163.253 17.64C164.186 16.8933 165.306 16.2933 166.613 15.84C167.946 15.3867 169.119 15.16 170.133 15.16C171.306 15.16 172.253 15.5333 172.973 16.28C173.719 17 174.093 18.1067 174.093 19.6V26.68C174.093 27.4533 174.226 28.0533 174.493 28.48C174.786 28.9067 175.186 29.12 175.693 29.12C176.066 29.12 176.453 29.0267 176.853 28.84H176.893C176.999 28.84 177.066 28.9067 177.093 29.04C177.146 29.1467 177.119 29.2267 177.013 29.28L172.893 31.24ZM165.213 31.28C164.066 31.28 163.199 31.0267 162.613 30.52C162.026 30.0133 161.733 29.3067 161.733 28.4C161.733 27.68 161.906 27.1067 162.253 26.68C162.599 26.2267 163.026 25.88 163.533 25.64C164.066 25.3733 164.799 25.08 165.733 24.76L166.733 24.4L170.733 22.92L170.893 23.52L168.613 24.56C168.533 24.5867 168.266 24.6933 167.813 24.88C167.359 25.04 166.959 25.32 166.613 25.72C166.293 26.12 166.133 26.5867 166.133 27.12C166.133 27.76 166.333 28.2667 166.733 28.64C167.159 28.9867 167.639 29.16 168.173 29.16C168.599 29.16 169.039 29.0133 169.493 28.72L171.493 27.36L171.533 28L168.733 30C168.119 30.4533 167.546 30.7867 167.013 31C166.479 31.1867 165.879 31.28 165.213 31.28Z" fill="white"/>
</svg>
