<svg width="160" height="32" viewBox="0 0 160 32" fill="none" xmlns="http://www.w3.org/2000/svg">
<path d="M5.53912 14.0465V18.2601L13.6227 26.2418L19.4536 31.9994H0V26.2418H5.84449L5.53912 25.9402L0 20.4709V0.402344L5.40543 5.73959L5.5391 5.8717L6.99394 7.30805L12.7528 12.9945L16.5473 16.7412L22.3059 22.4272L26.1691 26.2418L32 31.9994H23.7211L17.89 26.2418L14.4803 22.875C14.4801 22.875 14.4801 22.8747 14.4801 22.8747L6.64541 15.139L6.64518 15.1388L5.53912 14.0465Z" fill="#004040"/>
<path d="M29.4014 11.711C29.4014 15.4564 27.6316 18.7884 24.8827 20.9162L20.2709 16.3625C22.1237 15.45 23.3985 13.5423 23.3985 11.3378C23.3985 8.246 20.8923 5.73963 17.8005 5.73963H9.51253L8.47138 4.71165L5.53813 1.81516L3.78125 0.0805664H18.089C22.1968 0.192439 25.7731 2.43326 27.7539 5.73963C28.8002 7.48513 29.4014 9.52777 29.4014 11.711Z" fill="#C29D68"/>
<path d="M51.412 14.292C53.02 14.292 54.436 14.556 55.66 15.084C56.908 15.612 57.868 16.344 58.54 17.28C59.212 18.216 59.548 19.284 59.548 20.484C59.548 21.732 59.188 22.86 58.468 23.868C57.748 24.876 56.752 25.68 55.48 26.28C54.208 26.856 52.792 27.144 51.232 27.144C50.56 27.144 49.792 27.108 48.928 27.036C48.592 27.012 48.172 26.988 47.668 26.964C47.188 26.94 46.648 26.928 46.048 26.928L43.42 26.964C42.94 26.988 42.292 27 41.476 27C41.404 27 41.368 26.928 41.368 26.784C41.368 26.64 41.404 26.568 41.476 26.568C42.172 26.568 42.7 26.508 43.06 26.388C43.42 26.244 43.672 26.004 43.816 25.668C43.984 25.308 44.068 24.78 44.068 24.084V7.416C44.068 6.408 43.9 5.748 43.564 5.436C43.228 5.1 42.544 4.932 41.512 4.932C41.464 4.932 41.44 4.86 41.44 4.716C41.44 4.572 41.464 4.5 41.512 4.5L43.42 4.536C44.524 4.584 45.4 4.608 46.048 4.608C46.72 4.608 47.416 4.572 48.136 4.5C48.376 4.476 48.736 4.452 49.216 4.428C49.696 4.404 50.116 4.392 50.476 4.392C52.66 4.392 54.352 4.788 55.552 5.58C56.752 6.372 57.352 7.524 57.352 9.036C57.352 10.428 56.8 11.664 55.696 12.744C54.616 13.8 53.056 14.532 51.016 14.94L51.412 14.292ZM49.936 5.184C49.24 5.184 48.76 5.352 48.496 5.688C48.232 6 48.1 6.6 48.1 7.488V14.544L46.768 14.292C47.824 14.34 48.748 14.364 49.54 14.364C50.788 14.364 51.748 13.896 52.42 12.96C53.092 12.024 53.428 10.824 53.428 9.36C53.428 7.992 53.128 6.96 52.528 6.264C51.928 5.544 51.064 5.184 49.936 5.184ZM50.62 26.244C53.764 26.244 55.336 24.612 55.336 21.348C55.336 19.5 54.892 18.036 54.004 16.956C53.116 15.876 51.772 15.336 49.972 15.336C48.796 15.336 47.776 15.408 46.912 15.552L48.1 15.12V24.084C48.1 24.876 48.256 25.44 48.568 25.776C48.88 26.088 49.564 26.244 50.62 26.244ZM69.9422 27.468C68.4542 27.468 67.1462 27.132 66.0182 26.46C64.9142 25.764 64.0622 24.84 63.4622 23.688C62.8622 22.512 62.5622 21.24 62.5622 19.872C62.5622 18.312 62.9582 16.992 63.7502 15.912C64.5422 14.808 65.5502 13.992 66.7742 13.464C67.9982 12.912 69.2582 12.636 70.5542 12.636C72.0422 12.636 73.3382 12.984 74.4422 13.68C75.5462 14.376 76.3862 15.3 76.9622 16.452C77.5622 17.58 77.8622 18.792 77.8622 20.088C77.8622 21.528 77.5022 22.812 76.7822 23.94C76.0622 25.044 75.0902 25.908 73.8662 26.532C72.6662 27.156 71.3582 27.468 69.9422 27.468ZM71.0222 26.712C71.9582 26.712 72.6662 26.256 73.1462 25.344C73.6502 24.408 73.9022 23.076 73.9022 21.348C73.9022 19.668 73.6862 18.228 73.2542 17.028C72.8222 15.828 72.2582 14.928 71.5622 14.328C70.8662 13.704 70.1222 13.392 69.3302 13.392C67.4102 13.392 66.4502 15.108 66.4502 18.54C66.4502 20.148 66.6542 21.576 67.0622 22.824C67.4702 24.048 68.0222 25.008 68.7182 25.704C69.4142 26.376 70.1822 26.712 71.0222 26.712ZM87.5554 27.468C86.0674 27.468 84.7594 27.132 83.6314 26.46C82.5274 25.764 81.6754 24.84 81.0754 23.688C80.4754 22.512 80.1754 21.24 80.1754 19.872C80.1754 18.312 80.5714 16.992 81.3634 15.912C82.1554 14.808 83.1634 13.992 84.3874 13.464C85.6114 12.912 86.8714 12.636 88.1674 12.636C89.6554 12.636 90.9514 12.984 92.0554 13.68C93.1594 14.376 93.9994 15.3 94.5754 16.452C95.1754 17.58 95.4754 18.792 95.4754 20.088C95.4754 21.528 95.1154 22.812 94.3954 23.94C93.6754 25.044 92.7034 25.908 91.4794 26.532C90.2794 27.156 88.9714 27.468 87.5554 27.468ZM88.6354 26.712C89.5714 26.712 90.2794 26.256 90.7594 25.344C91.2634 24.408 91.5154 23.076 91.5154 21.348C91.5154 19.668 91.2994 18.228 90.8674 17.028C90.4354 15.828 89.8714 14.928 89.1754 14.328C88.4794 13.704 87.7354 13.392 86.9434 13.392C85.0234 13.392 84.0634 15.108 84.0634 18.54C84.0634 20.148 84.2674 21.576 84.6754 22.824C85.0834 24.048 85.6354 25.008 86.3314 25.704C87.0274 26.376 87.7954 26.712 88.6354 26.712ZM97.3927 27C97.3447 27 97.3207 26.928 97.3207 26.784C97.3207 26.64 97.3447 26.568 97.3927 26.568C98.1367 26.568 98.6407 26.4 98.9047 26.064C99.1927 25.704 99.3367 25.044 99.3367 24.084V5.796C99.3367 4.956 99.2527 4.356 99.0847 3.996C98.9407 3.636 98.6767 3.456 98.2927 3.456C97.9567 3.456 97.5007 3.588 96.9247 3.852H96.8887C96.8167 3.852 96.7447 3.792 96.6727 3.672C96.6247 3.528 96.6247 3.444 96.6727 3.42L101.929 0.935999L102.109 0.899999C102.229 0.899999 102.349 0.959999 102.469 1.08C102.613 1.176 102.685 1.272 102.685 1.368V24.084C102.685 25.044 102.817 25.704 103.081 26.064C103.369 26.4 103.885 26.568 104.629 26.568C104.725 26.568 104.773 26.64 104.773 26.784C104.773 26.928 104.725 27 104.629 27C104.005 27 103.501 26.988 103.117 26.964L101.029 26.928L98.8687 26.964C98.5087 26.988 98.0167 27 97.3927 27ZM106.465 27C106.393 27 106.357 26.928 106.357 26.784C106.357 26.64 106.393 26.568 106.465 26.568C107.329 26.568 107.761 26.316 107.761 25.812C107.761 25.548 107.665 25.308 107.473 25.092L103.117 19.512L105.565 17.64L110.605 24.084C111.301 24.948 111.961 25.584 112.585 25.992C113.233 26.376 113.881 26.568 114.529 26.568C114.601 26.568 114.637 26.64 114.637 26.784C114.637 26.928 114.601 27 114.529 27C113.905 27 113.413 26.988 113.053 26.964L110.893 26.928L108.121 26.964C107.713 26.988 107.161 27 106.465 27ZM101.173 21.06L106.033 16.38C106.657 15.804 106.969 15.216 106.969 14.616C106.969 14.304 106.849 14.052 106.609 13.86C106.369 13.644 106.033 13.536 105.601 13.536C105.553 13.536 105.529 13.464 105.529 13.32C105.529 13.176 105.553 13.104 105.601 13.104C106.297 13.104 106.837 13.116 107.221 13.14L110.065 13.176L112.693 13.14C113.029 13.116 113.497 13.104 114.097 13.104C114.169 13.104 114.205 13.176 114.205 13.32C114.205 13.464 114.169 13.536 114.097 13.536C113.065 13.536 111.877 13.8 110.533 14.328C109.213 14.832 108.025 15.576 106.969 16.56L101.389 21.636L101.173 21.06ZM122.22 27.468C120.732 27.468 119.424 27.132 118.296 26.46C117.192 25.764 116.34 24.84 115.74 23.688C115.14 22.512 114.84 21.24 114.84 19.872C114.84 18.312 115.236 16.992 116.028 15.912C116.82 14.808 117.828 13.992 119.052 13.464C120.276 12.912 121.536 12.636 122.832 12.636C124.32 12.636 125.616 12.984 126.72 13.68C127.824 14.376 128.664 15.3 129.24 16.452C129.84 17.58 130.14 18.792 130.14 20.088C130.14 21.528 129.78 22.812 129.06 23.94C128.34 25.044 127.368 25.908 126.144 26.532C124.944 27.156 123.636 27.468 122.22 27.468ZM123.3 26.712C124.236 26.712 124.944 26.256 125.424 25.344C125.928 24.408 126.18 23.076 126.18 21.348C126.18 19.668 125.964 18.228 125.532 17.028C125.1 15.828 124.536 14.928 123.84 14.328C123.144 13.704 122.4 13.392 121.608 13.392C119.688 13.392 118.728 15.108 118.728 18.54C118.728 20.148 118.932 21.576 119.34 22.824C119.748 24.048 120.3 25.008 120.996 25.704C121.692 26.376 122.46 26.712 123.3 26.712ZM136.809 16.776C138.129 15.264 139.185 14.22 139.977 13.644C140.793 13.044 141.489 12.744 142.065 12.744C142.617 12.744 143.145 12.948 143.649 13.356C144.177 13.74 144.441 14.208 144.441 14.76C144.441 15.264 144.285 15.684 143.973 16.02C143.661 16.332 143.253 16.488 142.749 16.488C142.389 16.488 142.089 16.416 141.849 16.272C141.633 16.128 141.405 15.912 141.165 15.624C140.949 15.384 140.757 15.216 140.589 15.12C140.445 15 140.265 14.94 140.049 14.94C139.785 14.94 139.449 15.084 139.041 15.372C138.657 15.66 138.009 16.284 137.097 17.244L136.809 16.776ZM132.705 27C132.633 27 132.597 26.928 132.597 26.784C132.597 26.64 132.633 26.568 132.705 26.568C133.449 26.568 133.953 26.4 134.217 26.064C134.481 25.704 134.613 25.044 134.613 24.084V17.316C134.613 16.572 134.517 16.032 134.325 15.696C134.157 15.336 133.881 15.156 133.497 15.156C133.089 15.156 132.513 15.324 131.769 15.66H131.697C131.625 15.66 131.565 15.6 131.517 15.48C131.493 15.36 131.505 15.288 131.553 15.264L136.557 12.816C136.701 12.768 136.785 12.744 136.809 12.744C137.097 12.744 137.361 13.056 137.601 13.68C137.865 14.28 137.997 15.084 137.997 16.092V24.084C137.997 25.044 138.225 25.704 138.681 26.064C139.137 26.4 139.977 26.568 141.201 26.568C141.297 26.568 141.345 26.64 141.345 26.784C141.345 26.928 141.297 27 141.201 27C140.361 27 139.701 26.988 139.221 26.964L136.305 26.928L134.181 26.964C133.821 26.988 133.329 27 132.705 27ZM156.004 27.216C155.908 27.264 155.788 27.288 155.644 27.288C155.164 27.288 154.72 26.988 154.312 26.388C153.904 25.764 153.7 24.948 153.7 23.94V17.82C153.7 16.284 153.568 15.168 153.304 14.472C153.064 13.776 152.644 13.428 152.044 13.428C150.772 13.428 150.052 14.412 149.884 16.38C149.812 17.1 149.596 17.616 149.236 17.928C148.9 18.24 148.42 18.396 147.796 18.396C147.196 18.396 146.752 18.276 146.464 18.036C146.2 17.772 146.068 17.436 146.068 17.028C146.068 16.308 146.488 15.624 147.328 14.976C148.168 14.304 149.176 13.764 150.352 13.356C151.552 12.948 152.608 12.744 153.52 12.744C154.576 12.744 155.428 13.08 156.076 13.752C156.748 14.4 157.084 15.396 157.084 16.74V23.112C157.084 23.808 157.204 24.348 157.444 24.732C157.708 25.116 158.068 25.308 158.524 25.308C158.86 25.308 159.208 25.224 159.568 25.056H159.604C159.7 25.056 159.76 25.116 159.784 25.236C159.832 25.332 159.808 25.404 159.712 25.452L156.004 27.216ZM149.092 27.252C148.06 27.252 147.28 27.024 146.752 26.568C146.224 26.112 145.96 25.476 145.96 24.66C145.96 24.012 146.116 23.496 146.428 23.112C146.74 22.704 147.124 22.392 147.58 22.176C148.06 21.936 148.72 21.672 149.56 21.384L150.46 21.06L154.06 19.728L154.204 20.268L152.152 21.204C152.08 21.228 151.84 21.324 151.432 21.492C151.024 21.636 150.664 21.888 150.352 22.248C150.064 22.608 149.92 23.028 149.92 23.508C149.92 24.084 150.1 24.54 150.46 24.876C150.844 25.188 151.276 25.344 151.756 25.344C152.14 25.344 152.536 25.212 152.944 24.948L154.744 23.724L154.78 24.3L152.26 26.1C151.708 26.508 151.192 26.808 150.712 27C150.232 27.168 149.692 27.252 149.092 27.252Z" fill="black"/>
</svg>
